<?xml version="1.0" encoding="UTF-8" standalone="no"?>
<svg
   version="1.1"
   viewBox="0 0 270.3 466.74"
   id="svg39"
   sodipodi:docname="Alien_02_strip.svg"
   inkscape:version="1.4 (e7c3feb1, 2024-10-09)"
   xmlns:inkscape="http://www.inkscape.org/namespaces/inkscape"
   xmlns:sodipodi="http://sodipodi.sourceforge.net/DTD/sodipodi-0.dtd"
   xmlns="http://www.w3.org/2000/svg"
   xmlns:svg="http://www.w3.org/2000/svg"
   xmlns:rdf="http://www.w3.org/1999/02/22-rdf-syntax-ns#"
   xmlns:cc="http://creativecommons.org/ns#"
   xmlns:dc="http://purl.org/dc/elements/1.1/">
  <sodipodi:namedview
     id="namedview39"
     pagecolor="#ffffff"
     bordercolor="#666666"
     borderopacity="1.0"
     inkscape:showpageshadow="2"
     inkscape:pageopacity="0.0"
     inkscape:pagecheckerboard="0"
     inkscape:deskcolor="#d1d1d1"
     inkscape:zoom="2.5209447"
     inkscape:cx="79.732016"
     inkscape:cy="298.89589"
     inkscape:window-width="1920"
     inkscape:window-height="984"
     inkscape:window-x="1958"
     inkscape:window-y="56"
     inkscape:window-maximized="0"
     inkscape:current-layer="g39" />
  <defs
     id="defs2">
    <filter
       id="b"
       x="-0.022207873"
       y="-0.10636402"
       width="1.0444157"
       height="1.212728"
       color-interpolation-filters="sRGB">
      <feGaussianBlur
         stdDeviation="1.6840971"
         id="feGaussianBlur1" />
    </filter>
    <linearGradient
       id="a"
       x1="314.26"
       x2="296.51"
       y1="237.45"
       y2="181.08"
       gradientUnits="userSpaceOnUse">
      <stop
         stop-color="#eb7331"
         offset="0"
         id="stop1" />
      <stop
         stop-color="#cf4913"
         offset="1"
         id="stop2" />
    </linearGradient>
  </defs>
  <g
     transform="translate(-399.13 -373.28)"
     id="g39">
    <path
       d="m 637.25938,599.30173 c 2.16075,3.84759 3.38032,8.29879 3.38032,13.04267 v 148.92789 c 0,14.72339 -11.84055,26.56394 -26.56394,26.56394 -6.02917,0 -11.55891,-1.99911 -16.00919,-5.35748 4.54855,8.08164 13.18145,13.52127 23.15251,13.52127 14.72338,0 26.56394,-11.84056 26.56394,-26.56394 V 620.50819 c 0,-8.68464 -4.11914,-16.36227 -10.52313,-21.20646 z"
       fill="#dd5e22"
       id="path15-2"
       style="stroke:#380000;stroke-width:1.02047;stroke-opacity:1" />
    <path
       d="m 583.04637,595.62895 c 0.96247,2.7249 1.4688,5.6875 1.4688,8.75 v 71.219 c 0,14.428 -11.603,26.062 -26.031,26.062 -7.0876,0 -13.501,-2.8126 -18.188,-7.375 3.5901,10.079 13.19,17.25 24.531,17.25 14.428,0 26.062,-11.603 26.062,-26.031 v -71.25 c 0,-7.3248 -3.0082,-13.902 -7.8438,-18.625 z"
       fill="#dd5e22"
       id="path14-9"
       style="stroke:#380000;stroke-opacity:1" />
    <path
       d="m 524.4585,587.53251 c 2.1589,3.84429 3.37742,8.29167 3.37742,13.03147 V 726.9329 c 0,14.71075 -11.83039,26.54114 -26.54114,26.54114 -6.02399,0 -11.54899,-1.99739 -15.99545,-5.35288 4.54465,8.0747 13.17014,13.50966 23.13161,13.50966 14.71075,0 26.54114,-11.83039 26.54114,-26.54114 V 608.72076 c 0,-8.67718 -4.1156,-16.34822 -10.51409,-21.18825 z"
       fill="#dd5e22"
       id="path13-3"
       style="stroke:#140000;stroke-width:1.0196;stroke-opacity:1" />
    <path
       d="m646.86 497.15c0 7.243-0.67931 114.69-1.9777 121.56-9.9242 52.477-56.017-8.1993-111.38-8.1993-54.511 0-100.04 61.887-110.9 10.612-1.6128-7.6141-2.4612-115.87-2.4612-123.97 0-62.605 50.752-113.36 113.36-113.36 62.605 0 113.36 50.752 113.36 113.36z"
       fill="#eb7331"
       id="path2"
       style="stroke:#000000;stroke-opacity:1" />
    <path
       transform="matrix(1.6995 0 0 1.6995 -1.3171 72.625)"
       d="m358.57 237.01c0 23.078-18.708 41.786-41.786 41.786s-41.786-18.708-41.786-41.786 18.708-41.786 41.786-41.786 41.786 18.708 41.786 41.786z"
       fill="url(#a)"
       id="path3" />
    <path
       transform="matrix(1.1688 0 0 1.1688 164.15 193.98)"
       d="m358.57 237.01c0 23.078-18.708 41.786-41.786 41.786s-41.786-18.708-41.786-41.786 18.708-41.786 41.786-41.786 41.786 18.708 41.786 41.786z"
       fill="#fff"
       id="path4"
       style="stroke:#000000;stroke-opacity:1" />
    <path
       transform="matrix(.5531 0 0 .5531 359.19 339.89)"
       d="m358.57 237.01c0 23.078-18.708 41.786-41.786 41.786s-41.786-18.708-41.786-41.786 18.708-41.786 41.786-41.786 41.786 18.708 41.786 41.786z"
       fill="#2e3436"
       id="path5"
       style="stroke:#000000;stroke-opacity:1;fill:#000000;fill-opacity:1" />
    <path
       transform="matrix(.17097 0 0 .17097 490 423.36)"
       d="m358.57 237.01c0 23.078-18.708 41.786-41.786 41.786s-41.786-18.708-41.786-41.786 18.708-41.786 41.786-41.786 41.786 18.708 41.786 41.786z"
       fill="#fff"
       id="path6" />
    <path
       d="m447.93 577.71c14.428 0 26.044 11.616 26.044 26.044v71.237c0 14.428-11.616 26.044-26.044 26.044s-26.044-11.616-26.044-26.044v-71.237c0-14.428 11.616-26.044 26.044-26.044z"
       fill="#eb7331"
       id="path7" />
    <path
       d="m506.14 583.07c14.428 0 26.044 11.616 26.044 26.044v123.93c0 14.428-11.616 26.044-26.044 26.044s-26.044-11.616-26.044-26.044v-123.93c0-14.428 11.616-26.044 26.044-26.044z"
       fill="#eb7331"
       id="path8" />
    <path
       d="m563.59 584.6c14.428 0 26.044 11.616 26.044 26.044v71.237c0 14.428-11.615 26.044-26.044 26.044-14.428 0-26.044-11.616-26.044-26.044v-71.237c0-14.428 11.616-26.044 26.044-26.044z"
       fill="#eb7331"
       id="path9" />
    <path
       d="m620.27 586.13c14.428 0 26.044 11.616 26.044 26.044v156.55c0 14.428-11.616 26.044-26.044 26.044s-26.044-11.616-26.044-26.044v-156.55c0-14.428 11.616-26.044 26.044-26.044z"
       fill="#eb7331"
       id="path10"
       style="stroke:none;stroke-opacity:1" />
    <path
       d="m 469.41851,588.84827 c 0.96767,2.73961 1.47673,5.71821 1.47673,8.79724 v 71.60352 c 0,14.50589 -11.66564,26.20271 -26.17154,26.20271 -7.12587,0 -13.57389,-2.82779 -18.2862,-7.41482 3.60948,10.13341 13.26121,17.34313 24.66344,17.34313 14.5059,0 26.20271,-11.66564 26.20271,-26.17154 v -71.63468 c 0,-7.36435 -3.02444,-13.97706 -7.88615,-18.72556 z"
       fill="#dd5e22"
       id="path12-8"
       style="stroke:#140000;stroke-width:1.40756;stroke-dasharray:none;stroke-opacity:1" />
    <path
       d="m 467.31299,587.17259 c 0.95713,2.7098 1.46066,5.65597 1.46066,8.70149 v 70.82416 c 0,14.34801 -11.53868,25.91751 -25.88669,25.91751 -7.0483,0 -13.42615,-2.79701 -18.08716,-7.33411 3.5702,10.02312 13.11687,17.15436 24.395,17.15436 14.34801,0 25.91751,-11.53867 25.91751,-25.88668 v -70.85498 c 0,-7.28419 -2.99153,-13.82493 -7.80032,-18.52175 z"
       fill="#dd5e22"
       id="path12"
       style="stroke-width:0.994456" />
    <path
       d="m523.87 590.33c2.1174 3.7704 3.3125 8.1323 3.3125 12.781v123.94c0 14.428-11.603 26.031-26.031 26.031-5.9082 0-11.327-1.959-15.688-5.25 4.4573 7.9195 12.917 13.25 22.687 13.25 14.428 0 26.031-11.603 26.031-26.031v-123.94c0-8.5104-4.0365-16.034-10.312-20.781z"
       fill="#dd5e22"
       id="path13" />
    <path
       d="m581.55 592.53c0.96247 2.7249 1.4688 5.6875 1.4688 8.75v71.219c0 14.428-11.603 26.062-26.031 26.062-7.0876 0-13.501-2.8126-18.188-7.375 3.5901 10.079 13.19 17.25 24.531 17.25 14.428 0 26.062-11.603 26.062-26.031v-71.25c0-7.3248-3.0082-13.902-7.8438-18.625z"
       fill="#dd5e22"
       id="path14" />
    <path
       d="m636.87 600.33c2.1174 3.7704 3.3125 8.1323 3.3125 12.781v145.94c0 14.428-11.603 26.031-26.031 26.031-5.9082 0-11.327-1.959-15.688-5.25 4.4573 7.9195 12.917 13.25 22.688 13.25 14.428 0 26.031-11.603 26.031-26.031v-145.94c0-8.5104-4.0365-16.034-10.312-20.781z"
       fill="#dd5e22"
       id="path15" />
    <path
       d="m488.52 590.77c-4.8356 4.7232-7.8438 11.3-7.8438 18.625v17.812l6.375-27.688c0-3.0625 0.50628-6.0251 1.4688-8.75z"
       fill="#f09868"
       id="path16" />
    <path
       d="m545.52 592.77c-4.8356 4.7232-7.8438 11.3-7.8438 18.625v17.812l6.375-27.688c0-3.0625 0.50628-6.0251 1.4688-8.75z"
       fill="#f09868"
       id="path17" />
    <path
       d="m603.02 599.77c-4.8356 4.7232-7.8438 11.3-7.8438 18.625v17.812l6.375-27.688c0-3.0625 0.50628-6.0251 1.4688-8.75z"
       fill="#f09868"
       id="path18" />
    <path
       transform="translate(399.13 373.28)"
       d="m61.619 164.2a8.0812 7.5761 0 1 1-16.162 0 8.0812 7.5761 0 1 1 16.162 0z"
       fill="#d9581e"
       id="path19" />
    <path
       d="m457.72 516.19c-0.16218 1.6945-1.4336 2.9947-2.7157 3.984-1.3625 1.0628-2.8848 1.9407-4.515 2.521-0.99562 0.31673-2.0803 0.54037-3.1178 0.31956-0.99589-0.28799-1.3898-1.3899-1.4677-2.3275-0.11135-1.0695 0.11404-2.1353 0.0788-3.2068 7e-3 -1.4952 0.10222-3.1067 1.0434-4.3446 1.5776-2.2822 4.8401-2.9947 7.3341-1.9164 1.9481 0.82358 3.3826 2.8315 3.3599 4.9708z"
       fill="#d9581e"
       id="path20" />
    <path
       transform="translate(399.13 373.28)"
       d="m61.619 164.2a8.0812 7.5761 0 1 1-16.162 0 8.0812 7.5761 0 1 1 16.162 0z"
       fill="#d9581e"
       id="path21" />
    <path
       d="m463.05 528.14c0.10686 1.4871 0.94469 2.6281 1.7895 3.4962 0.89783 0.93266 1.901 1.7032 2.9752 2.2124 0.65606 0.27795 1.3708 0.47421 2.0545 0.28044 0.65624-0.25274 0.9158-1.2198 0.96711-2.0426 0.0734-0.93854-0.0751-1.8739-0.0519-2.8142-5e-3 -1.3121-0.0674-2.7264-0.68755-3.8127-1.0396-2.0028-3.1894-2.6281-4.8328-1.6818-1.2837 0.72276-2.229 2.4848-2.214 4.3623z"
       fill="#d9581e"
       id="path22" />
    <path
       transform="matrix(-.82867 0 0 .82867 659.02 449.71)"
       d="m61.619 164.2a8.0812 7.5761 0 1 1-16.162 0 8.0812 7.5761 0 1 1 16.162 0z"
       fill="#d9581e"
       id="path23" />
    <path
       d="m610.47 568.13c0.1344 1.4042 1.188 2.4816 2.2504 3.3014 1.1291 0.88068 2.3906 1.6082 3.7414 2.089 0.82503 0.26247 1.7239 0.44779 2.5836 0.26481 0.82526-0.23865 1.1517-1.1518 1.2162-1.9288 0.0923-0.88622-0.0945-1.7695-0.0653-2.6573-6e-3 -1.239-0.0847-2.5744-0.86462-3.6002-1.3073-1.8912-4.0108-2.4816-6.0775-1.5881-1.6144 0.68248-2.8031 2.3464-2.7842 4.1192z"
       fill="#d9581e"
       id="path24" />
    <path
       transform="matrix(-.58118 0 0 .63068 643.77 480.72)"
       d="m61.619 164.2a8.0812 7.5761 0 1 1-16.162 0 8.0812 7.5761 0 1 1 16.162 0z"
       fill="#d9581e"
       id="path25" />
    <path
       d="m606.06 578.04c-0.0886 1.2323-0.78283 2.1778-1.4829 2.8972-0.744 0.77286-1.5753 1.4113-2.4654 1.8333-0.54365 0.23033-1.136 0.39296-1.7025 0.23239-0.54381-0.20943-0.75889-1.0108-0.80141-1.6926-0.0608-0.77773 0.0622-1.5528 0.043-2.332 4e-3 -1.0873 0.0559-2.2593 0.56975-3.1595 0.86144-1.6597 2.643-2.1778 4.0048-1.3937 1.0638 0.59892 1.8471 2.0591 1.8347 3.6149z"
       fill="#d9581e"
       id="path26" />
    <path
       transform="matrix(-.36832 0 0 .39969 616.1 489.4)"
       d="m61.619 164.2a8.0812 7.5761 0 1 1-16.162 0 8.0812 7.5761 0 1 1 16.162 0z"
       fill="#d9581e"
       id="path27" />
    <path
       transform="matrix(-.82867 0 0 .82867 554.02 602.71)"
       d="m61.619 164.2a8.0812 7.5761 0 1 1-16.162 0 8.0812 7.5761 0 1 1 16.162 0z"
       fill="#d9581e"
       id="path28" />
    <path
       d="m504.47 721.13c0.1344 1.4042 1.188 2.4816 2.2504 3.3014 1.1291 0.88068 2.3906 1.6082 3.7414 2.089 0.82503 0.26247 1.7239 0.44779 2.5836 0.26481 0.82526-0.23865 1.1517-1.1518 1.2162-1.9288 0.0923-0.88622-0.0945-1.7695-0.0653-2.6573-6e-3 -1.239-0.0847-2.5744-0.86462-3.6002-1.3073-1.8912-4.0108-2.4816-6.0775-1.5881-1.6144 0.68248-2.8031 2.3464-2.7842 4.1192z"
       fill="#d9581e"
       id="path29" />
    <path
       transform="matrix(-.58118 0 0 .63068 538.77 633.72)"
       d="m61.619 164.2a8.0812 7.5761 0 1 1-16.162 0 8.0812 7.5761 0 1 1 16.162 0z"
       fill="#d9581e"
       id="path30" />
    <path
       d="m501.06 731.04c-0.0886 1.2323-0.78283 2.1778-1.4829 2.8972-0.744 0.77286-1.5753 1.4113-2.4654 1.8333-0.54365 0.23033-1.136 0.39296-1.7025 0.23239-0.54381-0.20943-0.75889-1.0108-0.80141-1.6926-0.0608-0.77773 0.0622-1.5528 0.043-2.332 4e-3 -1.0873 0.0559-2.2593 0.56975-3.1595 0.86144-1.6597 2.643-2.1778 4.0048-1.3937 1.0638 0.59892 1.8471 2.0591 1.8347 3.6149z"
       fill="#d9581e"
       id="path31" />
    <path
       transform="matrix(-.36832 0 0 .39969 511.1 653.4)"
       d="m61.619 164.2a8.0812 7.5761 0 1 1-16.162 0 8.0812 7.5761 0 1 1 16.162 0z"
       fill="#d9581e"
       id="path32" />
    <path
       d="m610.97 751.91c0.18916 1.3358 1.672 2.3606 3.1673 3.1404 1.5891 0.83775 3.3645 1.5298 5.2658 1.9872 1.1612 0.24968 2.4262 0.42596 3.6362 0.2519 1.1615-0.22701 1.6209-1.0956 1.7117-1.8347 0.1299-0.84302-0.133-1.6832-0.0919-2.5278-8e-3 -1.1786-0.11921-2.4489-1.2169-3.4247-1.8399-1.799-5.645-2.3606-8.5536-1.5107-2.2721 0.64921-3.9451 2.232-3.9186 3.9184z"
       fill="#d9581e"
       id="path33" />
    <path
       transform="matrix(-.58118 0 0 .63068 637.27 644.22)"
       d="m61.619 164.2a8.0812 7.5761 0 1 1-16.162 0 8.0812 7.5761 0 1 1 16.162 0z"
       fill="#d9581e"
       id="path34" />
    <path
       d="m610.56 760.54c-0.0886 1.2323-0.78283 2.1778-1.4829 2.8972-0.744 0.77286-1.5753 1.4113-2.4654 1.8333-0.54365 0.23033-1.136 0.39296-1.7025 0.23239-0.54381-0.20943-0.75889-1.0108-0.80141-1.6926-0.0608-0.77773 0.0622-1.5528 0.043-2.332 4e-3 -1.0873 0.0559-2.2593 0.56975-3.1595 0.86144-1.6597 2.643-2.1778 4.0048-1.3937 1.0638 0.59892 1.8471 2.0591 1.8347 3.6149z"
       fill="#d9581e"
       id="path35" />
    <path
       transform="matrix(1.3807 0 0 .56306 412.83 314.33)"
       d="m61.619 164.2a8.0812 7.5761 0 1 1-16.162 0 8.0812 7.5761 0 1 1 16.162 0z"
       fill="#d9581e"
       id="path36" />
    <path
       d="m493.72 394.8c-0.22393 0.95412-1.9795 1.6862-3.7498 2.2432-1.8813 0.5984-3.9832 1.0928-6.234 1.4195-1.3747 0.17833-2.8724 0.30426-4.3049 0.17992-1.3751-0.16214-1.9189-0.7826-2.0265-1.3105-0.15375-0.60218 0.15746-1.2023 0.1088-1.8056 0.01-0.84185 0.14114-1.7493 1.4407-2.4462 2.1782-1.285 6.683-1.6862 10.127-1.0791 2.6899 0.46372 4.6706 1.5943 4.6392 2.7989z"
       fill="#d9581e"
       id="path37" />
    <path
       transform="matrix(1.3807 0 0 .56306 412.83 314.33)"
       d="m61.619 164.2a8.0812 7.5761 0 1 1-16.162 0 8.0812 7.5761 0 1 1 16.162 0z"
       fill="#d9581e"
       id="path38" />
    <path
       d="m501.08 401.53c0.14755 0.83731 1.3044 1.4798 2.4709 1.9686 1.2397 0.52513 2.6248 0.95896 4.108 1.2457 0.90585 0.1565 1.8928 0.267 2.8367 0.1579 0.9061-0.14231 1.2645-0.6868 1.3353-1.1501 0.10135-0.52845-0.10369-1.0551-0.0717-1.5846-7e-3 -0.7388-0.0931-1.5351-0.94933-2.1468-1.4354-1.1277-4.4037-1.4798-6.6729-0.94698-1.7725 0.40696-3.0777 1.3991-3.057 2.4562z"
       fill="#d9581e"
       id="path39" />
  </g>
  <metadata
     id="metadata39">
    <rdf:RDF>
      <cc:Work>
        <dc:format>image/svg+xml</dc:format>
        <dc:type
           rdf:resource="http://purl.org/dc/dcmitype/StillImage" />
        <cc:license
           rdf:resource="http://creativecommons.org/licenses/publicdomain/" />
        <dc:publisher>
          <cc:Agent
             rdf:about="http://openclipart.org/">
            <dc:title>Openclipart</dc:title>
          </cc:Agent>
        </dc:publisher>
        <dc:title>monster - grunge</dc:title>
        <dc:date>2010-05-02T20:53:15</dc:date>
        <dc:description>other sympathetic  monster</dc:description>
        <dc:source>https://openclipart.org/detail/58489/monster---grunge-by-rg1024</dc:source>
        <dc:creator>
          <cc:Agent>
            <dc:title>rg1024</dc:title>
          </cc:Agent>
        </dc:creator>
        <dc:subject>
          <rdf:Bag>
            <rdf:li>comic</rdf:li>
            <rdf:li>monster</rdf:li>
          </rdf:Bag>
        </dc:subject>
      </cc:Work>
      <cc:License
         rdf:about="http://creativecommons.org/licenses/publicdomain/">
        <cc:permits
           rdf:resource="http://creativecommons.org/ns#Reproduction" />
        <cc:permits
           rdf:resource="http://creativecommons.org/ns#Distribution" />
        <cc:permits
           rdf:resource="http://creativecommons.org/ns#DerivativeWorks" />
      </cc:License>
    </rdf:RDF>
  </metadata>
</svg>
