<?xml version="1.0" encoding="UTF-8" standalone="no"?>
<svg
   width="52.692mm"
   height="58.107mm"
   version="1.1"
   viewBox="0 0 52.692 58.107"
   id="svg19"
   sodipodi:docname="Alien_09_strip.svg"
   inkscape:version="1.4 (e7c3feb1, 2024-10-09)"
   xmlns:inkscape="http://www.inkscape.org/namespaces/inkscape"
   xmlns:sodipodi="http://sodipodi.sourceforge.net/DTD/sodipodi-0.dtd"
   xmlns:xlink="http://www.w3.org/1999/xlink"
   xmlns="http://www.w3.org/2000/svg"
   xmlns:svg="http://www.w3.org/2000/svg"
   xmlns:rdf="http://www.w3.org/1999/02/22-rdf-syntax-ns#"
   xmlns:cc="http://creativecommons.org/ns#"
   xmlns:dc="http://purl.org/dc/elements/1.1/">
  <sodipodi:namedview
     id="namedview19"
     pagecolor="#ffffff"
     bordercolor="#666666"
     borderopacity="1.0"
     inkscape:showpageshadow="2"
     inkscape:pageopacity="0.0"
     inkscape:pagecheckerboard="0"
     inkscape:deskcolor="#d1d1d1"
     inkscape:document-units="mm"
     inkscape:zoom="2.6788128"
     inkscape:cx="111.98991"
     inkscape:cy="58.048103"
     inkscape:window-width="1920"
     inkscape:window-height="1012"
     inkscape:window-x="1792"
     inkscape:window-y="25"
     inkscape:window-maximized="0"
     inkscape:current-layer="g19" />
  <defs
     id="defs4">
    <radialGradient
       id="b"
       cx="62.629"
       cy="467.15"
       r="12.122"
       gradientUnits="userSpaceOnUse"
       xlink:href="#c" />
    <linearGradient
       id="c">
      <stop
         stop-color="#f8f8f8"
         offset="0"
         id="stop1"
         style="stop-color:#f0f0f0;stop-opacity:1;" />
      <stop
         stop-color="#f8f8f8"
         stop-opacity=".62112"
         offset="1"
         id="stop2" />
    </linearGradient>
    <radialGradient
       id="a"
       cx="62.629"
       cy="467.15"
       r="12.122"
       gradientUnits="userSpaceOnUse"
       xlink:href="#d" />
    <linearGradient
       id="d">
      <stop
         stop-color="#a0c5f6"
         offset="0"
         id="stop3" />
      <stop
         stop-color="#71a8f2"
         stop-opacity=".61491"
         offset="1"
         id="stop4" />
    </linearGradient>
  </defs>
  <metadata
     id="metadata4">
    <rdf:RDF>
      <cc:Work
         rdf:about="">
        <dc:format>image/svg+xml</dc:format>
        <dc:type
           rdf:resource="http://purl.org/dc/dcmitype/StillImage" />
        <dc:title />
      </cc:Work>
    </rdf:RDF>
  </metadata>
  <g
     transform="translate(-57.565 -68.375)"
     id="g19">
    <rect
       x="65.706"
       y="98.251"
       width="37.089"
       height="23.288"
       rx="7.615"
       ry="7.615"
       color="#000000"
       fill="#e97f27"
       stroke="#000"
       stroke-width=".95187"
       id="rect4" />
    <g
       transform="matrix(.95187 0 0 .95187 -649.37 -590.75)"
       id="g13">
      <path
         d="m769.37 700c-14.435 0-26.156 7.7033-26.156 17.188 0 2.617 0.90637 5.0927 2.5 7.3125 17.707 3.4844 32.956 2.5452 47.312 0 1.5926-2.2192 2.4688-4.6964 2.4688-7.3125 0-9.4842-11.69-17.188-26.125-17.188z"
         color="#000000"
         fill="#e97f27"
         stroke="#000"
         stroke-linejoin="round"
         id="path4" />
      <circle
         transform="matrix(.79057 0 0 -.79057 704.57 1085.5)"
         cx="62.629"
         cy="467.15"
         r="12.122"
         color="#000000"
         fill="url(#b)"
         id="circle4"
         style="fill:#f0f0f0;fill-opacity:1" />
      <g
         transform="matrix(.79057 0 0 .79057 707.19 337.97)"
         id="g7">
        <circle
           transform="matrix(.58333 0 0 -.58333 22.781 752.71)"
           cx="62.629"
           cy="467.15"
           r="12.122"
           color="#000000"
           fill="url(#a)"
           id="circle5" />
        <circle
           transform="matrix(.36458 0 0 -.36458 36.481 650.52)"
           cx="62.629"
           cy="467.15"
           r="12.122"
           color="#000000"
           id="circle6" />
        <circle
           transform="matrix(.125 0 0 -.125 53.917 535.9)"
           cx="62.629"
           cy="467.15"
           r="12.122"
           color="#000000"
           fill="#f8f8f8"
           id="circle7" />
      </g>
      <circle
         transform="matrix(.79057 0 0 -.79057 734.87 1085.2)"
         cx="62.629"
         cy="467.15"
         r="12.122"
         color="#000000"
         fill="url(#b)"
         id="circle8"
         style="fill:#f0f0f0;fill-opacity:1" />
      <g
         transform="matrix(.79057 0 0 .79057 737.49 337.72)"
         id="g11">
        <circle
           transform="matrix(.58333 0 0 -.58333 22.781 752.71)"
           cx="62.629"
           cy="467.15"
           r="12.122"
           color="#000000"
           fill="url(#a)"
           id="circle9" />
        <circle
           transform="matrix(.36458 0 0 -.36458 36.481 650.52)"
           cx="62.629"
           cy="467.15"
           r="12.122"
           color="#000000"
           id="circle10" />
        <circle
           transform="matrix(.125 0 0 -.125 53.917 535.9)"
           cx="62.629"
           cy="467.15"
           r="12.122"
           color="#000000"
           fill="#f8f8f8"
           id="circle11" />
      </g>
      <g
         transform="matrix(1 0 0 .65039 84.752 245.93)"
         id="g12">
        <path
           d="m679.31 736.3v2.9152c1.5061 0.62886 3.633 1.0129 6.0034 1.0129 2.0812 0 3.9581-0.29108 5.4105-0.79057v-3.1376z"
           color="#000000"
           opacity=".14734"
           id="path11" />
        <rect
           x="679.25"
           y="736.28"
           width="11.38"
           height=".7986"
           color="#000000"
           fill="#343434"
           opacity=".30721"
           id="rect11" />
        <rect
           x="682.44"
           y="736.25"
           width="4.6228"
           height="1.9078"
           color="#000000"
           fill="#fff"
           opacity=".77743"
           id="rect12"
           style="fill:#ffffff;fill-opacity:1;opacity:1" />
      </g>
    </g>
    <rect
       transform="scale(-1,1)"
       x="-109.78"
       y="105.48"
       width="6.719"
       height="12.229"
       rx="3.8075"
       ry="3.8075"
       color="#000000"
       fill="#e97f27"
       stroke="#000"
       stroke-width=".95187"
       id="rect13" />
    <rect
       transform="rotate(90)"
       x="121.57"
       y="-80.348"
       width="4.4345"
       height="12.229"
       rx="3.8075"
       ry="3.8075"
       color="#000000"
       fill="#e97f27"
       stroke="#000"
       stroke-width=".95187"
       id="rect14" />
    <rect
       transform="rotate(90)"
       x="121.57"
       y="-99.026"
       width="4.4345"
       height="12.229"
       rx="3.8075"
       ry="3.8075"
       color="#000000"
       fill="#e97f27"
       stroke="#000"
       stroke-width=".95187"
       id="rect15" />
    <rect
       transform="scale(-1,1)"
       x="-64.76"
       y="105.35"
       width="6.719"
       height="12.229"
       rx="3.8075"
       ry="3.8075"
       color="#000000"
       fill="#e97f27"
       stroke="#000"
       stroke-width=".95187"
       id="rect16" />
    <g
       transform="matrix(.95187 0 0 .95187 -648.03 -596.53)"
       fill="#e97f27"
       id="g18">
      <rect
         transform="matrix(-.88524 .46514 .46514 .88524 0 0)"
         x="-343.12"
         y="968.63"
         width="3.1301"
         height="12.847"
         rx="4"
         ry="4"
         color="#000000"
         id="rect17" />
      <rect
         transform="rotate(27.719)"
         x="1016.7"
         y="254.55"
         width="3.1301"
         height="12.847"
         rx="4"
         ry="4"
         color="#000000"
         id="rect18" />
    </g>
  </g>
</svg>
