<?xml version="1.0" encoding="UTF-8" standalone="no"?>
<svg
   version="1.1"
   viewBox="0 0 385.95 368.84"
   id="svg16"
   sodipodi:docname="Alien_05_strip.svg"
   inkscape:version="1.4 (e7c3feb1, 2024-10-09)"
   xmlns:inkscape="http://www.inkscape.org/namespaces/inkscape"
   xmlns:sodipodi="http://sodipodi.sourceforge.net/DTD/sodipodi-0.dtd"
   xmlns="http://www.w3.org/2000/svg"
   xmlns:svg="http://www.w3.org/2000/svg"
   xmlns:rdf="http://www.w3.org/1999/02/22-rdf-syntax-ns#"
   xmlns:cc="http://creativecommons.org/ns#"
   xmlns:dc="http://purl.org/dc/elements/1.1/">
  <sodipodi:namedview
     id="namedview16"
     pagecolor="#ffffff"
     bordercolor="#666666"
     borderopacity="1.0"
     inkscape:showpageshadow="2"
     inkscape:pageopacity="0.0"
     inkscape:pagecheckerboard="0"
     inkscape:deskcolor="#d1d1d1"
     inkscape:zoom="1.5950354"
     inkscape:cx="166.76746"
     inkscape:cy="202.81682"
     inkscape:window-width="1920"
     inkscape:window-height="984"
     inkscape:window-x="1958"
     inkscape:window-y="56"
     inkscape:window-maximized="0"
     inkscape:current-layer="g16" />
  <defs
     id="defs4">
    <radialGradient
       id="a"
       cx="140.5"
       cy="543.86"
       r="64.18"
       gradientTransform="matrix(1 0 0 1.0234 0 -12.711)"
       gradientUnits="userSpaceOnUse">
      <stop
         stop-color="#fff"
         offset="0"
         id="stop1" />
      <stop
         stop-color="#fff"
         stop-opacity="0"
         offset="1"
         id="stop2" />
    </radialGradient>
    <linearGradient
       id="b"
       x1="140.7"
       x2="144.3"
       y1="598.92"
       y2="469.35"
       gradientUnits="userSpaceOnUse">
      <stop
         stop-color="#95946a"
         offset="0"
         id="stop3" />
      <stop
         stop-color="#3d3a3a"
         offset="1"
         id="stop4" />
    </linearGradient>
  </defs>
  <g
     transform="translate(-148.22 -312.97)"
     id="g16">
    <path
       d="m343.78 314.01c-14.257-0.2651 0.0414 10.123-5.5012 24.517-3.5185-0.30114-7.1349-0.4735-10.832-0.45614-53.76-0.25185-88.584 29.316-111.01 72.487-6.5393-1.4726-14.21-4.1908-17.698-12.354-8.4716-19.827 27.966-24.54 0.93817-28.926-27.027-4.3862 3.5874 11.205-14.968 26.646-18.556 15.44-42.161-5.9906-33.69 13.836 8.4715 19.827 11.055-7.9213 38.082-3.535 16.186 2.6268 18.118 13.016 21.024 17.637-33.479 76.465-34.045 186.45-32.027 254.1l292.33 2.8128c2.4481-32.965 3.2259-79.089-1.2367-126.84 5.0768-3.9054 12.433-9.3568 25.587-7.2221 27.027 4.3862 14.238 30.493 32.794 15.052 18.556-15.44-14.685-3.246-23.156-23.073-8.4716-19.827 27.966-24.54 0.93816-28.926-27.027-4.3862 3.5874 11.205-14.968 26.646-7.457 6.205-15.707 6.4454-22.389 5.8156-3.7778-33.901-10.347-68.136-20.939-98.638 4.8746-3.2271 11.61-6.1445 21.834-4.4853 27.027 4.3862 14.196 30.493 32.752 15.052 18.556-15.44-14.642-3.246-23.114-23.073-8.4715-19.827 27.923-24.54 0.89558-28.926-27.027-4.3862 3.63 11.205-14.926 26.646-6.8208 5.6756-14.338 6.3722-20.683 5.9677-19.152-49.979-50.042-88.283-98.767-95.483 1.6514-15.992 23.093-22.893 2.6014-25.011-1.4778-0.15285-2.7715-0.24564-3.8807-0.26635z"
       fill-rule="evenodd"
       stroke="#454242"
       stroke-linecap="round"
       stroke-linejoin="round"
       stroke-width="2.0711"
       id="path4"
       style="fill-rule:nonzero;fill:#6bbc00;fill-opacity:1"
       fill="#4d8800" />
    <path
       transform="matrix(1.6736 0 0 1.4918 329.13 -159.72)"
       d="m55 408.86c0 30.928-25.296 56-56.5 56s-56.5-25.072-56.5-56 25.296-56 56.5-56 56.5 25.072 56.5 56z"
       fill-opacity=".39216"
       fill-rule="evenodd"
       stroke="#000"
       stroke-opacity=".19178"
       id="path5"
       fill="#eeeac5" />
    <path
       transform="matrix(1.0991 -.012976 .01268 .95555 164.55 -68.461)"
       d="m200 543.86c0 33.689-26.639 61-59.5 61s-59.5-27.311-59.5-61 26.639-61 59.5-61 59.5 27.311 59.5 61z"
       fill-rule="evenodd"
       stroke="url(#b)"
       stroke-linecap="round"
       stroke-linejoin="round"
       stroke-width="9.3593"
       id="path6"
       style="stroke:#000000;fill:#ffffff;fill-opacity:1"
       fill="url(#a)" />
    <path
       transform="matrix(.57413 -.0078889 .007186 .63027 199.82 224.37)"
       d="m234 359.36c0 12.703-11.305 23-25.25 23s-25.25-10.297-25.25-23 11.305-23 25.25-23 25.25 10.297 25.25 23z"
       fill-rule="evenodd"
       id="path7" />
    <path
       d="m 220.79045,406.34641 c -44.20232,74.176 -45.05292,196.67118 -42.83699,269.25032 l 292.2443,2.78382 c 1.46639,-19.2915 2.35097,-43.21857 1.85413,-69.31685 C 136.35351,682.31854 262.88009,429.20576 220.78737,406.35089 Z"
       fill-opacity=".39269"
       stroke="#000"
       stroke-opacity=".19216"
       stroke-width="1.29518"
       id="path8"
       fill="#eeeac5"
       style="fill:#cbbe4d;fill-opacity:0.39269;stroke:#010000;stroke-opacity:0.866319" />
    <path
       transform="matrix(.48481 0 0 .43212 429 350.46)"
       d="m55 408.86c0 30.928-25.296 56-56.5 56s-56.5-25.072-56.5-56 25.296-56 56.5-56 56.5 25.072 56.5 56z"
       fill-opacity=".39216"
       fill-rule="evenodd"
       stroke="#000"
       stroke-opacity=".19216"
       id="path9"
       fill="#eeeac5" />
    <path
       transform="matrix(.37008 0 0 .32986 383.06 436.45)"
       d="m55 408.86c0 30.928-25.296 56-56.5 56s-56.5-25.072-56.5-56 25.296-56 56.5-56 56.5 25.072 56.5 56z"
       fill-opacity=".39216"
       fill-rule="evenodd"
       stroke="#000"
       stroke-opacity=".19216"
       id="path10"
       fill="#eeeac5" />
    <path
       transform="matrix(.16478 0 0 .14687 431.77 516.14)"
       d="m55 408.86c0 30.928-25.296 56-56.5 56s-56.5-25.072-56.5-56 25.296-56 56.5-56 56.5 25.072 56.5 56z"
       fill-opacity=".39216"
       fill-rule="evenodd"
       stroke="#000"
       stroke-opacity=".19216"
       id="path11"
       fill="#eeeac5" />
    <path
       transform="matrix(.10258 0 0 -.091429 372.37 395.67)"
       d="m55 408.86c0 30.928-25.296 56-56.5 56s-56.5-25.072-56.5-56 25.296-56 56.5-56 56.5 25.072 56.5 56z"
       fill-opacity=".39216"
       fill-rule="evenodd"
       stroke="#000"
       stroke-opacity=".19216"
       id="path12"
       fill="#eeeac5" />
    <path
       transform="matrix(.10215 0 0 .091052 375.03 323.44)"
       d="m55 408.86c0 30.928-25.296 56-56.5 56s-56.5-25.072-56.5-56 25.296-56 56.5-56 56.5 25.072 56.5 56z"
       fill-opacity=".39216"
       fill-rule="evenodd"
       stroke="#000"
       stroke-opacity=".19216"
       id="path13"
       fill="#eeeac5" />
    <path
       transform="matrix(.10215 0 0 .091052 389.1 326.63)"
       d="m55 408.86c0 30.928-25.296 56-56.5 56s-56.5-25.072-56.5-56 25.296-56 56.5-56 56.5 25.072 56.5 56z"
       fill-opacity=".39216"
       fill-rule="evenodd"
       stroke="#000"
       stroke-opacity=".19216"
       id="path14"
       fill="#eeeac5" />
    <path
       transform="matrix(.16478 0 0 .14687 455.47 493.33)"
       d="m55 408.86c0 30.928-25.296 56-56.5 56s-56.5-25.072-56.5-56 25.296-56 56.5-56 56.5 25.072 56.5 56z"
       fill-opacity=".39216"
       fill-rule="evenodd"
       stroke="#000"
       stroke-opacity=".19216"
       id="path15"
       fill="#eeeac5" />
    <path
       transform="matrix(.10215 0 0 .091052 395.1 341.31)"
       d="m55 408.86c0 30.928-25.296 56-56.5 56s-56.5-25.072-56.5-56 25.296-56 56.5-56 56.5 25.072 56.5 56z"
       fill-opacity=".39216"
       fill-rule="evenodd"
       stroke="#000"
       stroke-opacity=".19216"
       id="path16"
       fill="#eeeac5" />
  </g>
  <metadata
     id="metadata16">
    <rdf:RDF>
      <cc:Work>
        <dc:format>image/svg+xml</dc:format>
        <dc:type
           rdf:resource="http://purl.org/dc/dcmitype/StillImage" />
        <cc:license
           rdf:resource="http://creativecommons.org/licenses/publicdomain/" />
        <dc:publisher>
          <cc:Agent
             rdf:about="http://openclipart.org/">
            <dc:title>Openclipart</dc:title>
          </cc:Agent>
        </dc:publisher>
        <dc:title>Alien</dc:title>
        <dc:date>2013-10-06T20:40:49</dc:date>
        <dc:description>green alien</dc:description>
        <dc:source>https://openclipart.org/detail/184642/alien-by-anarres-184642</dc:source>
        <dc:creator>
          <cc:Agent>
            <dc:title>anarres</dc:title>
          </cc:Agent>
        </dc:creator>
        <dc:subject>
          <rdf:Bag>
            <rdf:li>Green</rdf:li>
            <rdf:li>alien</rdf:li>
            <rdf:li>funny</rdf:li>
            <rdf:li>weird</rdf:li>
          </rdf:Bag>
        </dc:subject>
      </cc:Work>
      <cc:License
         rdf:about="http://creativecommons.org/licenses/publicdomain/">
        <cc:permits
           rdf:resource="http://creativecommons.org/ns#Reproduction" />
        <cc:permits
           rdf:resource="http://creativecommons.org/ns#Distribution" />
        <cc:permits
           rdf:resource="http://creativecommons.org/ns#DerivativeWorks" />
      </cc:License>
    </rdf:RDF>
  </metadata>
</svg>
