<?xml version="1.0" encoding="UTF-8" standalone="no"?>
<svg
   viewBox="0 0 232 298"
   version="1.1"
   id="svg22"
   sodipodi:docname="Alien_08_strip.svg"
   inkscape:version="1.4 (e7c3feb1, 2024-10-09)"
   xmlns:inkscape="http://www.inkscape.org/namespaces/inkscape"
   xmlns:sodipodi="http://sodipodi.sourceforge.net/DTD/sodipodi-0.dtd"
   xmlns="http://www.w3.org/2000/svg"
   xmlns:svg="http://www.w3.org/2000/svg"
   xmlns:rdf="http://www.w3.org/1999/02/22-rdf-syntax-ns#"
   xmlns:cc="http://creativecommons.org/ns#"
   xmlns:dc="http://purl.org/dc/elements/1.1/">
  <sodipodi:namedview
     id="namedview22"
     pagecolor="#ffffff"
     bordercolor="#666666"
     borderopacity="1.0"
     inkscape:showpageshadow="2"
     inkscape:pageopacity="0.0"
     inkscape:pagecheckerboard="0"
     inkscape:deskcolor="#d1d1d1"
     inkscape:zoom="2.7919463"
     inkscape:cx="113.54087"
     inkscape:cy="138.79207"
     inkscape:window-width="1920"
     inkscape:window-height="1012"
     inkscape:window-x="1958"
     inkscape:window-y="56"
     inkscape:window-maximized="0"
     inkscape:current-layer="g22" />
  <defs
     id="defs4">
    <linearGradient
       id="b"
       x1=".5"
       x2=".5"
       y1="1.6549"
       y2=".35174">
      <stop
         stop-color="#2e3436"
         offset="0"
         id="stop1" />
      <stop
         stop-color="#d8571d"
         offset="1"
         id="stop2" />
    </linearGradient>
    <linearGradient
       id="a"
       x1=".46977"
       x2=".25741"
       y1=".50531"
       y2="-.16924">
      <stop
         stop-color="#eb7331"
         offset="0"
         id="stop3" />
      <stop
         stop-color="#cf4913"
         offset="1"
         id="stop4" />
    </linearGradient>
  </defs>
  <g
     label="Layer 1"
     id="g22">
    <path
       transform="translate(-5.1522 6.1035e-5) matrix(1 0 0 1 -478.85 -441.13)"
       d="m700.29 554.36c0 7.24-0.63 114.57-1.82 121.43-9.14 52.42-51.57-8.19-102.54-8.19-50.18 0-92.09 61.82-102.09 10.6-1.49-7.61-2.27-115.75-2.27-123.84 0-62.54 46.72-113.23 104.36-113.23 57.63 0 104.36 50.69 104.36 113.23z"
       fill="#eb7331"
       label="Layer 1"
       id="path4"
       style="stroke:#000000;stroke-opacity:1" />
    <path
       transform="translate(-5.1522 6.1035e-5) matrix(1.3547 0 0 1.3547 -307.23 -247.03)"
       d="m358.57 237.01c0 23.07-18.71 41.78-41.78 41.78-23.08 0-41.79-18.71-41.79-41.78 0-23.08 18.71-41.79 41.79-41.79 23.07 0 41.78 18.71 41.78 41.79z"
       fill="url(#a)"
       label="Layer 1"
       id="path5" />
    <path
       transform="translate(-5.1522 6.1035e-5) matrix(.93162 0 0 .93162 -175.33 -150.3)"
       d="m358.57 237.01c0 23.07-18.71 41.78-41.78 41.78-23.08 0-41.79-18.71-41.79-41.78 0-23.08 18.71-41.79 41.79-41.79 23.07 0 41.78 18.71 41.78 41.79z"
       fill="#fff"
       label="Layer 1"
       id="path6"
       style="stroke:#000000;stroke-opacity:1" />
    <path
       transform="translate(-5.1522 6.1035e-5) matrix(.44088 0 0 .44088 -19.869 -33.991)"
       d="m358.57 237.01c0 23.07-18.71 41.78-41.78 41.78-23.08 0-41.79-18.71-41.79-41.78 0-23.08 18.71-41.79 41.79-41.79 23.07 0 41.78 18.71 41.78 41.79z"
       fill="#2e3436"
       label="Layer 1"
       id="path7"
       style="fill:#000000;fill-opacity:1" />
    <path
       transform="translate(-5.1522 6.1035e-5) matrix(.13628 0 0 .13628 84.402 32.544)"
       d="m358.57 237.01c0 23.07-18.71 41.78-41.78 41.78-23.08 0-41.79-18.71-41.79-41.78 0-23.08 18.71-41.79 41.79-41.79 23.07 0 41.78 18.71 41.78 41.79z"
       fill="#fff"
       label="Layer 1"
       id="path8" />
    <path
       transform="translate(-5.1522 6.1035e-5) matrix(1 0 0 1 -478.85 -441.13)"
       d="m672 601.57v9.98c0 3.32-14.27 6.01-32 6.01h-89c-17.73 0-32-2.69-32-6.01v-9.98c29.77-1.11 128.38-28.82 153 0z"
       fill="url(#b)"
       label="Layer 1"
       id="path9"
       style="stroke:#000000;stroke-opacity:1" />
    <path
       transform="translate(-5.1522 6.1035e-5) matrix(1 0 0 1 -478.85 -441.13)"
       d="m556.47 596.32c-7.64 1.27-14.71 2.44-20.94 3.37-0.02 0.23-0.03 0.46-0.03 0.69v20.34c0 4.06 2.67 7.35 6 7.35h10c3.33 0 6-3.29 6-7.35v-20.34c0-1.51-0.39-2.9-1.03-4.06z"
       fill="#fff"
       label="Layer 1"
       id="path10"
       style="stroke:#000000;stroke-opacity:1" />
    <path
       transform="translate(-5.1522 6.1035e-5) matrix(1 0 0 1 -478.85 -441.13)"
       d="m592.25 604.88c-14.77 0-26.99 5.51-28.97 12.69h57.94c-1.98-7.18-14.2-12.69-28.97-12.69z"
       fill="#2e3436"
       label="Layer 1"
       id="path11"
       style="fill:#000000;fill-opacity:1;stroke:#000000;stroke-opacity:1" />
    <path
       transform="translate(-5.1522 6.1035e-5) matrix(1 0 0 1 -478.85 -441.13)"
       d="m626.19 588.51c-1.91 0-3.86 0.03-5.81 0.09-0.03 0.27-0.04 0.54-0.04 0.81v20.38c0 4.05 2.71 7.31 6.04 7.31h9.96c3.33 0 6-3.26 6-7.31v-20.47c-5.06-0.58-10.49-0.84-16.15-0.81z"
       fill="#fff"
       label="Layer 1"
       id="path12"
       style="stroke:#000000;stroke-opacity:1" />
    <path
       transform="translate(-5.1522 6.1035e-5) matrix(1 0 0 1 -478.85 -441.13)"
       d="m527.64 473.48a6.0104 6.0104 0 1 1-12.02 0 6.0104 6.0104 0 1 1 12.02 0z"
       fill="#eb7331"
       label="Layer 1"
       id="path13" />
    <path
       transform="translate(-5.1522 6.1035e-5) matrix(1 0 0 1 -478.85 -441.13)"
       d="m518.45 489.39a6.0104 6.0104 0 1 1-12.03 0 6.0104 6.0104 0 1 1 12.03 0z"
       fill="#eb7331"
       label="Layer 1"
       id="path14" />
    <path
       transform="translate(-5.1522 6.1035e-5) matrix(1 0 0 1 -478.85 -441.13)"
       d="m528.8 479.98c0.15 0.52 0.25 1.05 0.25 1.62 0 3.32-2.68 6.03-6 6.03-1.53 0-2.94-0.59-4-1.53 0.72 2.51 3.01 4.34 5.75 4.34 3.32 0 6.03-2.68 6.03-6 0-1.78-0.79-3.36-2.03-4.46z"
       fill="#d9581e"
       label="Layer 1"
       id="path15" />
    <path
       transform="translate(-5.1522 6.1035e-5) matrix(1 0 0 1 -478.85 -441.13)"
       d="m518.46 495.89c0.1 0.36 0.17 0.73 0.17 1.13 0 2.31-1.86 4.2-4.17 4.2-1.07 0-2.05-0.41-2.79-1.07 0.5 1.75 2.1 3.02 4 3.02 2.32 0 4.2-1.86 4.2-4.17 0-1.25-0.55-2.35-1.41-3.11z"
       fill="#d9581e"
       label="Layer 1"
       id="path16" />
    <path
       transform="translate(-5.1522 6.1035e-5) matrix(-1 0 0 1 227.7 -1.4142)"
       d="m46.669 27.052a6.0104 6.0104 0 1 1-12.021 0 6.0104 6.0104 0 1 1 12.021 0z"
       fill="#eb7331"
       label="Layer 1"
       id="path17" />
    <path
       transform="translate(-5.1522 6.1035e-5) matrix(-1 0 0 1 236.89 14.496)"
       d="m46.669 27.052a6.0104 6.0104 0 1 1-12.021 0 6.0104 6.0104 0 1 1 12.021 0z"
       fill="#eb7331"
       label="Layer 1"
       id="path18" />
    <path
       transform="translate(-5.1522 6.1035e-5) matrix(1 0 0 1 -478.85 -441.13)"
       d="m658.61 475.73c-0.17 0.52-0.28 1.06-0.28 1.63 0 3.32 3 6.03 6.72 6.03 1.71 0 3.29-0.59 4.48-1.53-0.81 2.51-3.37 4.34-6.44 4.34-3.72 0-6.76-2.68-6.76-6 0-1.78 0.89-3.37 2.28-4.47z"
       fill="#d9581e"
       label="Layer 1"
       id="path19" />
    <path
       transform="translate(-5.1522 6.1035e-5) matrix(1 0 0 1 -478.85 -441.13)"
       d="m671.53 486.69c-0.1 0.37-0.17 0.74-0.17 1.13 0 2.32 1.87 4.2 4.18 4.2 1.06 0 2.04-0.41 2.78-1.06-0.5 1.74-2.09 3.02-4 3.02-2.31 0-4.2-1.87-4.2-4.18 0-1.24 0.55-2.34 1.41-3.11z"
       fill="#d9581e"
       label="Layer 1"
       id="path20" />
    <path
       transform="translate(-5.1522 6.1035e-5) matrix(-1 0 0 1 246.09 28.638)"
       d="m46.669 27.052a6.0104 6.0104 0 1 1-12.021 0 6.0104 6.0104 0 1 1 12.021 0z"
       fill="#eb7331"
       label="Layer 1"
       id="path21" />
    <path
       transform="translate(-5.1522 6.1035e-5) matrix(1 0 0 1 -478.85 -441.13)"
       d="m676.75 503.66c-0.15 0.53-0.25 1.06-0.25 1.63 0 3.32 2.68 6.03 6 6.03 1.53 0 2.94-0.59 4-1.53-0.72 2.51-3.01 4.34-5.75 4.34-3.32 0-6.03-2.68-6.03-6 0-1.78 0.79-3.36 2.03-4.47z"
       fill="#d9581e"
       label="Layer 1"
       id="path22" />
    <title
       id="title22">Layer 1</title>
  </g>
  <metadata
     id="metadata22">
    <rdf:RDF>
      <cc:Work>
        <dc:format>image/svg+xml</dc:format>
        <dc:type
           rdf:resource="http://purl.org/dc/dcmitype/StillImage" />
        <cc:license
           rdf:resource="http://creativecommons.org/licenses/publicdomain/" />
        <dc:publisher>
          <cc:Agent
             rdf:about="http://openclipart.org/">
            <dc:title>Openclipart</dc:title>
          </cc:Agent>
        </dc:publisher>
        <dc:title>MonsterNoShadow</dc:title>
        <dc:date>2012-02-06T12:35:44</dc:date>
        <dc:description />
        <dc:source>https://openclipart.org/detail/167774/monsternoshadow-by-rduris</dc:source>
        <dc:creator>
          <cc:Agent>
            <dc:title>rduris</dc:title>
          </cc:Agent>
        </dc:creator>
        <dc:subject>
          <rdf:Bag>
            <rdf:li>ghost</rdf:li>
            <rdf:li>monster</rdf:li>
            <rdf:li>cyclops</rdf:li>
            <rdf:li>eye</rdf:li>
            <rdf:li>orange</rdf:li>
          </rdf:Bag>
        </dc:subject>
      </cc:Work>
      <cc:License
         rdf:about="http://creativecommons.org/licenses/publicdomain/">
        <cc:permits
           rdf:resource="http://creativecommons.org/ns#Reproduction" />
        <cc:permits
           rdf:resource="http://creativecommons.org/ns#Distribution" />
        <cc:permits
           rdf:resource="http://creativecommons.org/ns#DerivativeWorks" />
      </cc:License>
    </rdf:RDF>
  </metadata>
</svg>
