<?xml version="1.0" encoding="UTF-8" standalone="no"?>
<svg
   version="1.1"
   viewBox="0 0 400 400"
   id="svg23"
   sodipodi:docname="Alien_03_strip.svg"
   inkscape:version="1.4 (e7c3feb1, 2024-10-09)"
   xmlns:inkscape="http://www.inkscape.org/namespaces/inkscape"
   xmlns:sodipodi="http://sodipodi.sourceforge.net/DTD/sodipodi-0.dtd"
   xmlns="http://www.w3.org/2000/svg"
   xmlns:svg="http://www.w3.org/2000/svg"
   xmlns:rdf="http://www.w3.org/1999/02/22-rdf-syntax-ns#"
   xmlns:cc="http://creativecommons.org/ns#"
   xmlns:dc="http://purl.org/dc/elements/1.1/">
  <sodipodi:namedview
     id="namedview23"
     pagecolor="#ffffff"
     bordercolor="#666666"
     borderopacity="1.0"
     inkscape:showpageshadow="2"
     inkscape:pageopacity="0.0"
     inkscape:pagecheckerboard="0"
     inkscape:deskcolor="#d1d1d1"
     inkscape:zoom="1.04"
     inkscape:cx="300"
     inkscape:cy="199.51923"
     inkscape:window-width="1920"
     inkscape:window-height="1040"
     inkscape:window-x="1792"
     inkscape:window-y="25"
     inkscape:window-maximized="1"
     inkscape:current-layer="g22" />
  <defs
     id="defs2">
    <linearGradient
       id="a"
       x1="5438.7"
       x2="5442"
       y1="-1645.4"
       y2="-1815.4"
       gradientTransform="matrix(2.2936 0 0 2.2939 -11073 5591)"
       gradientUnits="userSpaceOnUse">
      <stop
         stop-color="#805889"
         offset="0"
         id="stop1" />
      <stop
         stop-color="#c8b8ac"
         offset="1"
         id="stop2" />
    </linearGradient>
  </defs>
  <metadata
     id="metadata2">
    <rdf:RDF>
      <cc:Work
         rdf:about="">
        <dc:format>image/svg+xml</dc:format>
        <dc:type
           rdf:resource="http://purl.org/dc/dcmitype/StillImage" />
        <dc:title />
      </cc:Work>
    </rdf:RDF>
  </metadata>
  <g
     transform="translate(0 -652.36)"
     id="g23">
    <g
       transform="matrix(.5 0 0 .5 -389 -11.049)"
       id="g22">
      <path
         d="m1045.7 1834.4c-12.273-35.813-57.532-43.416-88.167-28.067-49.942 25.023-59.084 90.775-32.457 136.03 38.195 64.923 126.41 75.652 186.91 36.657 80.539-51.91 92.862-164.05 40.734-240.42-4.2215-6.1844-8.8093-12.118-13.727-17.764"
         color="#000000"
         fill="#614c76"
         stroke="#000"
         stroke-width="6.0293"
         id="path3" />
      <g
         stroke="#000"
         id="g9">
        <path
           d="m1311.2 1836.6c12.273-35.813 51.532-49.416 82.167-34.067 49.942 25.023 59.084 90.775 32.457 136.03-38.195 64.923-126.41 75.652-186.91 36.657-80.539-51.91-92.862-164.05-40.734-240.42 4.2215-6.1844 8.8093-12.118 13.727-17.764"
           color="#000000"
           fill="#614c76"
           stroke-width="6.0293"
           id="path8" />
        <path
           d="m1320.9 1822.4c-23.17 9.5303-41.772 25.827-52.312 45.844 4.033 7.2005 9.0736 13.091 16.187 19.469 15.038 13.48 34.901 19.358 52.688 16.062 26.743-0.7851 50.233-30.173 40.219-54-5.8569-20.217-33.223-22.629-34.531-3.125 13.721-5.1443 20.419 0.2592 15.781 14.281-4.9632 13.316-22.516 15.222-32.812 3.5312-9.8333-11.166-10.756-27.276-5.2188-42.062z"
           color="#000000"
           fill="#8d6890"
           stroke-linecap="round"
           stroke-linejoin="round"
           stroke-width="6.0293"
           id="path9" />
      </g>
      <path
         d="m1181.7 1574.2c-67.587-1.6091-136.57 44.919-151.45 112.53-6.2973 22.336-1.4785 45.766-3.3772 68.577-0.779 31.298 6.2028 63.538 25.715 88.684 41.32 57.41 122.99 78.972 188.04 52.399 47.193-18.17 85.693-62.109 89.578-113.62 2.6469-27.332 1.0599-54.884 1.2935-82.263-5.0528-32.082-18.509-63.732-43.342-85.511-28.664-26.31-67.574-41.129-106.46-40.788z"
         fill="#614c76"
         stroke="#000"
         stroke-linecap="round"
         stroke-linejoin="round"
         stroke-width="6.0293"
         id="path10" />
      <path
         d="m1023.4 1810.2c-6.491-3.0048-14.184-3.7999-21.17-2.0192-22.149 5.6451-32.304 30.652-25.852 51.432 10.844 28.97 47.751 46.351 71.946 32.472 1.5116-0.986 2.602-1.899 2.4195-2.0306s-2.2506-0.2137-4.607-0.2069c-11.064 0.0324-22.318-5.1571-29.056-13.391-2.3124-2.8264-4.082-5.8473-5.3979-8.9238-0.3781-1.0023-0.7651-2.0519-1.1304-3.1967-0.9889-3.1022-1.5186-6.2444-1.6331-9.322-0.0151-0.4043-0.0227-0.8017-0.0236-1.2041-8e-4 -0.4516 0.0282-0.9045 0.0451-1.353 0.708-13.335 9.6063-25.023 24.109-26.709l6.1803-0.695-3.4239-1.8311c-0.107-0.0571-0.2204-0.0958-0.3281-0.1513 0.0552-0.0036 0.1382-0.0182 0.1904-0.0206 0.3245-0.0145 0.5025-0.0036 0.7639-0.0094-2.551-5.8526-7.3311-10.201-13.033-12.84z"
         color="#000000"
         fill="#8d6890"
         stroke="#000"
         stroke-linecap="round"
         stroke-linejoin="round"
         stroke-width="6.0293"
         id="path11" />
      <path
         transform="matrix(.99478 -.31038 .31038 .99478 595.77 1503)"
         d="m428.34 529.16c21.241 6.1994 29.742 31.041 22.619 50.673-9.976 27.493-42.792 38.133-68.769 27.573-33.909-13.785-46.754-54.907-32.601-87.361 17.645-40.462 67.31-55.561 106.36-37.697 47.13 21.56 64.524 79.956 42.857 125.71-25.526 53.899-92.812 73.623-145.35 48.075-60.758-29.543-82.842-105.85-53.348-165.27 6.7571-13.612 15.915-26.003 26.898-36.503"
         fill="#614c76"
         stroke="#000"
         stroke-linecap="round"
         stroke-linejoin="round"
         stroke-width="5.7859"
         id="path12" />
      <path
         d="m1192.3 1986.9c-20.827 8.6595-45.8 4.3115-64.245-11.186-1.9439-1.6333-4.1444-3.6113-4.89-4.3957l-1.3555-1.4262 3.0514 0.9629c14.044 4.4316 27.328 4.0894 40.081-1.0324 5.596-2.2475 14.121-8.3406 18.145-12.969 10.772-12.389 14.645-30.324 9.8467-45.597-1.6395-5.2187-6.4186-13.104-9.7041-16.012-1.1276-0.9979-2.0117-2.0108-1.9646-2.2509 0.2039-1.0397 7.0161-0.8969 12.209 0.2561 9.4108 2.0894 17.435 7.5754 23.786 16.262 6.6735 9.1271 9.5164 19.055 8.8738 30.989-0.6046 11.23-5.2662 22.195-13.404 31.53-4.3642 5.0063-14.565 12.431-20.43 14.869z"
         fill="#8d6890"
         stroke="#000"
         stroke-linecap="round"
         stroke-linejoin="round"
         stroke-width="6.0293"
         id="path13" />
      <g
         fill="#8c6475"
         fill-rule="evenodd"
         stroke="#000"
         stroke-linecap="round"
         stroke-linejoin="round"
         stroke-width="6.0293"
         id="g15">
        <path
           d="m1084.7 1665c-12.954 3.0961-25.041 7.2278-35.844 12.688-5.9765 10.048-0.6957 56.077-10.656 66.125-1.9923 12.057-44.656 28.125-44.656 28.125 11.952 16.076 21.906 4.0436 29.875 8.0625 0 0-5.9768 24.116 0 26.125 0 2.0098 15.938-10.072 15.938-8.0625 3.9842 6.0287-6.9374 11.638 1.0312 15.656 39.199-8.0314 38.457-111.47 44.313-148.72z"
           id="path14" />
        <path
           d="m1284.3 1664.6c-10.236 49.252 21.316 114.98 13.906 149.59 11.952 8.0381 13.961-15.522 19.938-17.531 3.984-2.0094 19.906 10.028 19.906 4 7.9683-4.0192-3.9921-18.075-2-22.094 9.9605 8.0378 28.124 4.2841 25.906-4.0312 1e-4 0-21.907-20.602-37.844-38.688-9.9605-12.057-3.0393-52.609-5.0313-62.656-8.3283-2.3853-20.308-5.4254-34.781-8.5937z"
           id="path15" />
      </g>
      <path
         d="m1181.7 1388.5c-116.97 0-295.88 256.92-188.08 323.44 73.487 47.576 303.15 39.616 376.15 0 105.51-66.523-71.102-323.44-185.78-323.44z"
         fill="url(#a)"
         fill-rule="evenodd"
         stroke="#000"
         stroke-width="6.0154"
         id="path16" />
      <g
         transform="translate(-726,1082)"
         fill="#44233d"
         fill-rule="evenodd"
         id="g18">
        <path
           transform="matrix(.86197 -1.0716 1.2546 1.0091 1261.7 661.68)"
           d="m462 186.8c0 3.4518-5.3726 6.25-12 6.25s-12-2.7982-12-6.25 5.3726-6.25 12-6.25 12 2.7982 12 6.25z"
           id="path17" />
        <path
           transform="matrix(-.86197 -1.0716 -1.2546 1.0091 2551.1 661.68)"
           d="m462 186.8c0 3.4518-5.3726 6.25-12 6.25s-12-2.7982-12-6.25 5.3726-6.25 12-6.25 12 2.7982 12 6.25z"
           id="path18" />
      </g>
      <g
         transform="translate(646,1080)"
         id="g21">
        <path
           transform="matrix(5.2 0 0 5.2 360.93 -278.61)"
           d="m55 152.5c0 1.3807-1.1193 2.5-2.5 2.5s-2.5-1.1193-2.5-2.5 1.1193-2.5 2.5-2.5 2.5 1.1193 2.5 2.5z"
           fill-rule="evenodd"
           id="path19" />
        <path
           d="m508.94 564.28h46.08"
           fill="none"
           stroke="#000"
           stroke-linecap="round"
           stroke-linejoin="round"
           stroke-width="8"
           id="path20" />
        <path
           transform="matrix(5.2 0 0 5.2 160.93 -278.61)"
           d="m55 152.5c0 1.3807-1.1193 2.5-2.5 2.5s-2.5-1.1193-2.5-2.5 1.1193-2.5 2.5-2.5 2.5 1.1193 2.5 2.5z"
           fill-rule="evenodd"
           id="path21" />
      </g>
    </g>
  </g>
</svg>
