<?xml version="1.0" encoding="UTF-8" standalone="no"?>
<svg
   viewBox="0 0 548.33 648.35"
   version="1.1"
   id="svg31"
   sodipodi:docname="Alien_10_strip.svg"
   inkscape:version="1.4 (e7c3feb1, 2024-10-09)"
   xmlns:inkscape="http://www.inkscape.org/namespaces/inkscape"
   xmlns:sodipodi="http://sodipodi.sourceforge.net/DTD/sodipodi-0.dtd"
   xmlns="http://www.w3.org/2000/svg"
   xmlns:svg="http://www.w3.org/2000/svg">
  <sodipodi:namedview
     id="namedview31"
     pagecolor="#ffffff"
     bordercolor="#666666"
     borderopacity="1.0"
     inkscape:showpageshadow="2"
     inkscape:pageopacity="0.0"
     inkscape:pagecheckerboard="0"
     inkscape:deskcolor="#d1d1d1"
     inkscape:zoom="1.2832575"
     inkscape:cx="162.0875"
     inkscape:cy="377.55478"
     inkscape:window-width="1920"
     inkscape:window-height="1012"
     inkscape:window-x="1792"
     inkscape:window-y="25"
     inkscape:window-maximized="0"
     inkscape:current-layer="g31" />
  <defs
     id="defs1">
    <style
       id="style1">.cls-1{fill:#7973b5;stroke:#669;}.cls-2,.cls-6{fill:#231f20;}.cls-3{fill:#d41c55;}.cls-4{fill:#6f5401;stroke-width:2px;}.cls-4,.cls-5,.cls-6{stroke:#231f20;}.cls-4,.cls-5{stroke-linecap:round;}.cls-5{fill:#aad037;}.cls-6{stroke-width:0.75px;}.cls-7{fill:#fff;}.cls-8{fill:none;}</style>
  </defs>
  <title
     id="title1">Purple Monster with Antlers</title>
  <g
     data-name="Layer 2"
     id="g31">
    <path
       class="cls-1"
       d="M230,547.72c-37.86,0-73.77,16.53-82.5,33.07s5.82,67.06,2.91,67.06-34-42.26-46.6-67.06-19.41-59.72-24.26-59.72S68.86,527.5,66,533c-2.75-6.25-.36-16.18,3-25.2,1.28-3.41-2.7-6.42-6-4.6-2.91,1.61-5.6,2.42-7.69,2.24,6.79-7.35,14.88-24.5,16.5-34-2.39,6.22-8.45,13.48-15,18.79-3.24,2.61-8.08-.62-6.56-4.38,7.69-19,15.75-51.1,15.76-61.26C61.41,438.7,47,483,20.32,511.89a190,190,0,0,0,23.3-64.31c3-18.57,2.52-56,10.35-83.82,1.19-4.26-4.74-6.83-7.4-3.22l-.35.48c-2.8,3.82-9.06.77-7.3-3.57,2.91-7.16,6.23-14.72,9.5-21.73,1.9-4.09-3.78-7.55-6.89-4.19-.9,1-1.81,2-2.72,3-3.05,3.46-8.89.17-7-4,2.45-5.45,5.16-11,7.89-16.37,1.7-3.33-2-6.82-5.47-5.21-5.5,2.52-12,4.41-19.71,6.3,8.74-4.59,25.24-23,34-41.34,7.39-15.54,11-45.87,35.1-77.93,2.69-3.57-2.06-7.94-5.84-5.4-2.39,1.6-4.63,3.21-6.82,4.89-3.71,2.84-8.66-1.47-6-5.24,19.32-27.67,45.14-54.69,71-71.58-23.3,6.43-46.6,22-46.6,22S137.77,75.5,230,75.5s140.75,65.23,140.75,65.23-23.3-15.62-46.6-22c25.82,16.89,51.64,43.91,71,71.58,2.63,3.77-2.32,8.08-6,5.24-2.19-1.68-4.43-3.29-6.82-4.89-3.78-2.54-8.53,1.83-5.84,5.4,24.14,32.06,27.71,62.39,35.1,77.93,8.73,18.38,25.23,36.75,34,41.34-7.75-1.89-14.21-3.78-19.71-6.3-3.52-1.61-7.17,1.88-5.47,5.21,2.73,5.33,5.44,10.92,7.89,16.37,1.87,4.15-4,7.44-7,4-.91-1-1.82-2-2.72-3-3.11-3.36-8.79.1-6.89,4.19,3.27,7,6.59,14.57,9.5,21.73,1.76,4.34-4.5,7.39-7.3,3.57l-.35-.48c-2.66-3.61-8.59-1-7.4,3.22,7.83,27.83,7.33,65.25,10.35,83.82a190,190,0,0,0,23.3,64.31C413,483,398.57,438.7,394,424.61c0,10.16,8.06,42.23,15.76,61.26,1.52,3.76-3.32,7-6.56,4.38-6.57-5.31-12.63-12.57-15-18.79,1.62,9.5,9.71,26.65,16.5,34-2.09.18-4.78-.63-7.69-2.24-3.31-1.82-7.29,1.19-6,4.6,3.38,9,5.77,18.95,3,25.2-2.91-5.52-8.73-11.95-13.59-11.95S368.79,556,356.17,580.79s-43.68,67.06-46.59,67.06,11.65-50.53,2.91-67.06S267.85,547.72,230,547.72Z"
       id="path1"
       style="stroke:#000000;stroke-opacity:1;stroke-width:2.9;stroke-dasharray:none" />
    <path
       class="cls-1"
       d="M236.47,547.72c-37.86,0-73.77,16.53-82.51,33.07s5.83,67.06,2.92,67.06-34-42.26-46.6-67.06S90.87,521.07,86,521.07,75.34,527.5,72.42,533c-2.75-6.25-.36-16.18,3-25.2,1.27-3.41-2.71-6.42-6-4.6-2.91,1.61-5.6,2.42-7.69,2.24,6.79-7.35,14.87-24.5,16.5-34-2.4,6.22-8.46,13.48-15,18.79-3.23,2.61-8.08-.62-6.56-4.38,7.7-19,15.76-51.1,15.76-61.26C67.89,438.7,53.49,483,26.8,511.89a190.23,190.23,0,0,0,23.3-64.31c3-18.57,2.51-56,10.34-83.82,1.2-4.26-4.73-6.83-7.39-3.22l-.35.48c-2.8,3.82-9.06.77-7.3-3.57,2.9-7.16,6.22-14.72,9.49-21.73,1.91-4.09-3.77-7.55-6.89-4.19-.9,1-1.8,2-2.72,3-3.05,3.46-8.88.17-7-4,2.45-5.45,5.15-11,7.88-16.37,1.7-3.33-1.94-6.82-5.46-5.21-5.51,2.52-12,4.41-19.71,6.3,8.73-4.59,25.23-23,34-41.34C62.34,258.4,65.91,228.07,90,196c2.69-3.57-2.05-7.94-5.83-5.4-2.39,1.6-4.63,3.21-6.82,4.89-3.71,2.84-8.66-1.47-6-5.24,19.31-27.67,45.13-54.69,71-71.58-23.29,6.43-46.59,22-46.59,22S144.25,75.5,236.47,75.5s140.74,65.23,140.74,65.23-23.3-15.62-46.59-22c25.82,16.89,51.64,43.91,70.95,71.58,2.63,3.77-2.32,8.08-6,5.24-2.19-1.68-4.43-3.29-6.82-4.89-3.78-2.54-8.52,1.83-5.83,5.4C407,228.07,410.59,258.4,418,273.94c8.74,18.38,25.24,36.75,34,41.34-7.75-1.89-14.21-3.78-19.72-6.3-3.52-1.61-7.16,1.88-5.46,5.21,2.73,5.33,5.43,10.92,7.89,16.37,1.87,4.15-4,7.44-7,4-.91-1-1.82-2-2.72-3-3.11-3.36-8.79.1-6.89,4.19,3.27,7,6.59,14.57,9.49,21.73,1.77,4.34-4.5,7.39-7.3,3.57l-.35-.48c-2.66-3.61-8.59-1-7.39,3.22,7.83,27.83,7.33,65.25,10.35,83.82a190,190,0,0,0,23.29,64.31C419.44,483,405,438.7,400.51,424.61c0,10.16,8.06,42.23,15.76,61.26,1.52,3.76-3.33,7-6.56,4.38-6.57-5.31-12.64-12.57-15-18.79,1.63,9.5,9.71,26.65,16.51,34-2.1.18-4.79-.63-7.7-2.24-3.3-1.82-7.28,1.19-6,4.6,3.38,9,5.77,18.95,3,25.2-2.91-5.52-8.74-11.95-13.59-11.95S375.27,556,362.65,580.79,319,647.85,316.06,647.85s11.65-50.53,2.91-67.06S274.32,547.72,236.47,547.72Z"
       id="path2"
       style="fill:#39c89b;fill-opacity:1;stroke:#000000;stroke-opacity:1;stroke-width:4.3;stroke-dasharray:none" />
    <path
       class="cls-2"
       d="M192.7,230.75c.09-1.31.13-2.65.13-4,0-21.11-11-38.23-24.52-38.23s-24.52,17.12-24.52,38.23c0,1.43.06,2.85.16,4.25a91.49,91.49,0,0,1,24.82-3.78A90.8,90.8,0,0,1,192.7,230.75Z"
       id="path31"
       style="fill:#ffffff;stroke:#000003;stroke-opacity:1;stroke-width:3.618;stroke-dasharray:none;fill-opacity:1" />
    <path
       class="cls-2"
       d="M294.25,229.16c.08-1.26.13-2.53.13-3.83,0-20.22-10.91-36.61-24.38-36.61s-24.38,16.39-24.38,36.61c0,1.37.06,2.73.16,4.07a94.14,94.14,0,0,1,24.68-3.62A93.14,93.14,0,0,1,294.25,229.16Z"
       id="path3"
       style="fill:#ffffff;stroke:#000003;stroke-opacity:1;stroke-width:3.618;stroke-dasharray:none;fill-opacity:1" />
    <g
       data-name="ears upper"
       id="g11">
      <path
         class="cls-2"
         d="m471.18 92.17z"
         id="path5" />
      <ellipse
         style="fill:#000000;stroke:#bfbfbf;stroke-width:7.80224;stroke-linecap:round;stroke-linejoin:round;stroke-dashoffset:16.6299;stroke-opacity:1"
         id="path32"
         cx="168.61247"
         cy="209.8931"
         rx="11.582605"
         ry="11.904177" />
      <ellipse
         style="fill:#000000;stroke:#bfbfbf;stroke-width:7.80224;stroke-linecap:round;stroke-linejoin:round;stroke-dashoffset:16.6299"
         id="path32-9"
         cx="270.83847"
         cy="208.54436"
         rx="11.582605"
         ry="11.904177" />
    </g>
    <path
       class="cls-6"
       d="M 303.78173,273.99927 C 282.36173,297.15927 261.68,322.02 194.49,298.89"
       id="path13"
       style="fill:#ffffff;stroke:#000000;stroke-width:2.95;stroke-dasharray:none;stroke-opacity:1"
       sodipodi:nodetypes="cc" />
    <path
       class="cls-7"
       d="m 259.82,170.57 c 5.61843,5.6315 29.54764,1.73516 32.82827,-10.90974 z"
       id="path29"
       style="stroke:#000000;stroke-width:1.00904;stroke-dasharray:none;stroke-opacity:1;fill:#bfbfbf"
       sodipodi:nodetypes="ccc" />
    <path
       class="cls-7"
       d="m 168.31,161.64 c 4.97389,0.12939 23.9168,12.78877 28.5668,14.559 0,0 -14.5668,-25.349 -28.5668,-25.349 -14,0 -14.54,13.66 -14.54,13.66 4.65001,-1.77024 9.56611,-2.74061 14.54,-2.87 z"
       id="path30"
       style="stroke:#000000;stroke-width:1.00904;stroke-dasharray:none;stroke-opacity:1;fill:#bfbfbf"
       sodipodi:nodetypes="ccscc" />
    <line
       class="cls-8"
       x1="54.48"
       x2="125.66"
       y1="327.94"
       y2="254.04"
       id="line31" />
  </g>
</svg>
