<?xml version="1.0" encoding="UTF-8"?>
<svg version="1.1" viewBox="0 0 281.5 452.72" xmlns="http://www.w3.org/2000/svg" xmlns:cc="http://creativecommons.org/ns#" xmlns:dc="http://purl.org/dc/elements/1.1/" xmlns:rdf="http://www.w3.org/1999/02/22-rdf-syntax-ns#">
 <metadata>
  <rdf:RDF>
   <cc:Work rdf:about="">
    <dc:format>image/svg+xml</dc:format>
    <dc:type rdf:resource="http://purl.org/dc/dcmitype/StillImage"/>
    <dc:title/>
   </cc:Work>
  </rdf:RDF>
 </metadata>
 <g transform="translate(-679.25 -304.97)">
  <g stroke-linecap="round" stroke-linejoin="round" stroke-width="7">
   <g transform="translate(0,-254)" fill="#7174ab" stroke="#000">
    <path d="m861.61 903.25c2.5849 5.1698 6.893 55.028 25.849 69.675 16.371 12.924 6.0315 29.726-8.6163 30.588-19.818 1.7233-45.666-78.043-42.651-85.367"/>
    <path d="m779.75 903.25c-3.0157 5.1698-6.893 55.028-25.849 69.675-16.371 12.924-6.0315 29.726 8.1854 30.588 20.248 1.7233 45.666-78.043 42.651-85.367"/>
    <path d="m837.48 899.3c2.154 5.1698-4.3082 59.949-3.4466 81.921 0.8617 27.572-6.893 27.572-19.818 25.849-18.525-0.8616-8.1856-73.735-4.3081-79.767"/>
   </g>
   <path d="m861.44 415.79s-7.6401 27.268-20.335 38.788c-6.818-1.0575-13.753-1.5266-20.924-1.5266-8.346 0-16.457 0.70365-24.45 2.1149-12.812-11.521-20.688-38.554-20.688-38.554l-24.685 8.9328s9.8743 25.741 6.818 42.199c-44.198 21.746-74.408 65.825-74.408 116.72 0 72.647 61.595 131.42 137.41 131.42 75.819 0 137.06-58.772 137.06-131.42 0-52.07-31.503-97.092-77.346-118.37-2.9386-16.339 6.4649-41.611 6.4649-41.611l-24.92-8.6983z" fill="#7e89d1" stroke="#000"/>
   <path d="m739.84 568.83a17.105 27.521 13.15 1 1-33.207-8.2284 17.105 27.521 13.15 0 1 33.207 8.2284z" fill="#deaa87" fill-opacity=".79044"/>
   <path d="m837.93 622.79a30.868 33.348 0 0 1-61.736 0 30.868 33.348 0 1 1 61.736 0z" fill="#deaa87" fill-opacity=".79044"/>
   <path d="m935.61 565.19a19.137 10.751 72.26 0 1-20.336 6.9354 19.137 10.751 72.26 1 1 20.336-6.9354z" fill="#deaa87" fill-opacity=".79044"/>
   <path d="m889.88 633.13a15.234 19.219 0 0 1-30.445 0 15.234 19.219 0 1 1 30.445 0z" fill="#deaa87" fill-opacity=".79044"/>
   <path d="m885.18 554.84a24.215 27.471 0 0 1-48.43 0 24.215 27.471 0 1 1 48.43 0z" fill="#deaa87" fill-opacity=".79044"/>
   <path d="m758.22 613.85a17.762 10.137 61.07 0 1-17.503 10.227 17.762 10.137 61.07 1 1 17.503-10.227z" fill="#deaa87" fill-opacity=".79044"/>
   <path d="m811.36 367.47c0 32.561-26.213 59.009-59.009 59.009-32.444 0-58.892-26.448-58.892-59.009 0-32.561 26.448-59.009 58.892-59.009 32.796 0 59.009 26.448 59.009 59.009z" fill="#7e89d1" stroke="#000"/>
   <path d="m794.08 356.77c0 15.987-12.93 29.035-28.799 29.035-16.457 0-29.387-13.048-29.387-29.035 0-15.986 12.93-28.917 29.387-28.917 15.869 0 28.799 12.93 28.799 28.917z" fill="#fff" stroke="#000"/>
   <path d="m781.97 361.95c0 5.2893-4.2315 9.6389-9.8738 9.6389-5.1724 0-9.4038-4.3495-9.4038-9.6389 0-5.2897 4.2314-9.6393 9.4038-9.6393 5.6423 0 9.8738 4.3495 9.8738 9.6393z"/>
   <path d="m807.95 347.37c0 0.9402 0.4698 1.8808 0.4698 2.7033 0 32.561-26.801 59.009-59.126 59.009-25.39 0-47.372-16.104-55.6-38.791 1.2929 31.385 27.154 56.305 59.009 56.305 32.326 0 59.126-26.448 59.126-59.009 0-7.0528-1.2928-13.87-3.8788-20.218z" opacity=".14"/>
   <path d="m828.64 367.47c0 32.561 26.213 59.009 59.009 59.009 32.208 0 59.009-26.448 58.539-59.009 0.4703-32.561-26.331-59.009-58.539-59.009-32.796 0-59.009 26.448-59.009 59.009z" fill="#7e89d1" stroke="#000"/>
   <path d="m846.27 356.77c0 15.987 12.93 29.035 28.917 29.035 15.869 0 28.799-13.048 28.799-29.035 0-15.986-12.93-28.917-28.799-28.917-15.986 0-28.917 12.93-28.917 28.917z" fill="#fff" stroke="#000"/>
   <path d="m858.38 361.95c0 5.2893 4.3494 9.6389 9.5216 9.6389 5.5247 0 9.8738-4.3495 9.8738-9.6389 0-5.2897-4.3491-9.6393-9.8738-9.6393-5.1722 0-9.5216 4.3495-9.5216 9.6393z"/>
   <path d="m943.12 347.37c0 0.9402 0.4691 1.8808 0.4691 2.7033 0 32.561-26.802 59.009-59.127 59.009-25.39 0-47.371-16.104-55.6-38.791 1.2929 31.385 27.154 56.305 59.011 56.305 32.324 0 59.127-26.448 59.127-59.009 0-7.0528-1.296-13.87-3.8801-20.218z" opacity=".14"/>
   <path d="m949.26 539.15v6.0312c0 72.377-61.176 131.4-137 131.4-59.452 0-109.82-36.189-129.07-86.594 3.3175 69.792 63.588 125.37 137.26 125.37 75.823 0 137-58.592 137-131.4 0-15.509-3.0157-31.018-8.1854-44.805z" opacity=".14"/>
   <g transform="translate(-340,-4)" fill="#6a76c6" stroke="#000">
    <path d="m1074.8 687.47c0.0637 7.1993-1.702 14.946-8.0938 21.844-13.871 15.281-1.2873 29.966 13.406 28.438 14.497-0.86289 21.559-20.721 22.625-33.875"/>
    <path d="m1217.3 703.97c1.1012 13.154 8.1944 32.92 22.656 33.781 14.694 1.5281 27.277-13.156 13.406-28.438-6.3733-6.8777-8.1778-14.6-8.125-21.781"/>
    <path d="m1168.9 715.62c-2.4044 9.7074 3.7658 41.482 22.625 42.469 14.223 1.6457 27.161-13.063 12.938-28.344-5.4345-5.8646-7.5045-12.333-7.9063-18.562"/>
    <path d="m1125.8 711.75c-0.4881 6.0543-2.5738 12.313-7.8438 18-14.223 15.281-1.2858 29.989 12.938 28.344 18.8-0.98374 25-32.561 22.656-42.375"/>
   </g>
  </g>
 </g>
</svg>
