<?xml version="1.0" encoding="UTF-8" standalone="no"?>
<svg
   width="168.10814mm"
   height="169.34779mm"
   version="1.1"
   id="svg73"
   sodipodi:docname="Planets_04_strip.svg"
   inkscape:version="1.4 (e7c3feb1, 2024-10-09)"
   xmlns:inkscape="http://www.inkscape.org/namespaces/inkscape"
   xmlns:sodipodi="http://sodipodi.sourceforge.net/DTD/sodipodi-0.dtd"
   xmlns="http://www.w3.org/2000/svg"
   xmlns:svg="http://www.w3.org/2000/svg"
   xmlns:rdf="http://www.w3.org/1999/02/22-rdf-syntax-ns#"
   xmlns:cc="http://creativecommons.org/ns#"
   xmlns:dc="http://purl.org/dc/elements/1.1/">
  <sodipodi:namedview
     id="namedview73"
     pagecolor="#ffffff"
     bordercolor="#666666"
     borderopacity="1.0"
     inkscape:showpageshadow="2"
     inkscape:pageopacity="0.0"
     inkscape:pagecheckerboard="0"
     inkscape:deskcolor="#d1d1d1"
     inkscape:document-units="mm"
     inkscape:zoom="0.023162177"
     inkscape:cx="345.39067"
     inkscape:cy="453.32526"
     inkscape:window-width="1792"
     inkscape:window-height="932"
     inkscape:window-x="0"
     inkscape:window-y="25"
     inkscape:window-maximized="1"
     inkscape:current-layer="svg73" />
  <defs
     id="defs10">
    <radialGradient
       id="a"
       cx="289.78"
       cy="367.64999"
       r="182.84"
       gradientTransform="matrix(1.7064161,0.97614488,-0.926991,1.6204968,78.82187,-634.34667)"
       gradientUnits="userSpaceOnUse">
      <stop
         stop-color="#e3e0be"
         offset="0"
         id="stop1" />
      <stop
         stop-color="#a6a58c"
         offset=".45733"
         id="stop2" />
      <stop
         stop-color="#767467"
         offset=".73587"
         id="stop3" />
      <stop
         stop-color="#3b3a2c"
         offset="1"
         id="stop4" />
    </radialGradient>
    <linearGradient
       id="c"
       x1="243.25999"
       x2="378.89999"
       y1="339.14999"
       y2="483.89001"
       gradientTransform="matrix(0.97637,-0.2161,0.2161,0.97637,-87.048,65.663)"
       gradientUnits="userSpaceOnUse">
      <stop
         stop-color="#8b8b70"
         offset="0"
         id="stop5" />
      <stop
         stop-color="#a8a598"
         stop-opacity=".59712"
         offset="1"
         id="stop6" />
    </linearGradient>
    <linearGradient
       id="b"
       x1="284.17001"
       x2="435"
       y1="471.82999"
       y2="471.82999"
       gradientTransform="translate(1.3621,-0.68103)"
       gradientUnits="userSpaceOnUse">
      <stop
         stop-color="#888372"
         stop-opacity=".38129"
         offset="0"
         id="stop7" />
      <stop
         stop-color="#5d583b"
         stop-opacity=".6259"
         offset="1"
         id="stop8" />
    </linearGradient>
    <filter
       id="f"
       x="-0.19169"
       y="-0.20386"
       width="1.3834"
       height="1.4076999">
      <feGaussianBlur
         stdDeviation="20.61629"
         id="feGaussianBlur8" />
    </filter>
    <filter
       id="e"
       x="-0.095218874"
       y="-0.1622127"
       width="1.1904377"
       height="1.3244254">
      <feGaussianBlur
         stdDeviation="5.9444271"
         id="feGaussianBlur9" />
    </filter>
    <filter
       id="d"
       x="-0.1266893"
       y="-0.12394312"
       width="1.2533786"
       height="1.2478862">
      <feGaussianBlur
         stdDeviation="15.311704"
         id="feGaussianBlur10" />
    </filter>
  </defs>
  <metadata
     id="metadata10">
    <rdf:RDF>
      <cc:Work
         rdf:about="">
        <dc:format>image/svg+xml</dc:format>
        <dc:type
           rdf:resource="http://purl.org/dc/dcmitype/StillImage" />
      </cc:Work>
    </rdf:RDF>
  </metadata>
  <path
     d="m 633.623,320.02732 a 315.947,315.947 0 1 1 -631.876626,0 315.947,315.947 0 1 1 631.876626,0 z"
     fill="url(#a)"
     stroke="#000000"
     stroke-width="3.475"
     id="path10"
     style="fill:url(#a)" />
  <path
     d="m 350.90437,367.9117 c 2.6553,-4.3028 7.0384,-7.5048 11.945,-8.726 l 9.5515,-5.8956 9.8934,-7.2167 14.834,-4.1273 7.759,7.063 c 1.9103,3.7016 2.0106,8.2415 0.43794,12.099 -0.78632,1.9286 -1.9538,3.6883 -3.3266,5.2545 -1.3728,1.5662 -2.949,2.9392 -4.5283,4.2969 l -11.261,9.681 -11.815,4.8698 c -3.751,1.2055 -7.7584,1.6062 -11.674,1.1674 -5.3354,-0.59799 -10.484,-2.772 -14.634,-6.1788 -0.43538,-4.2558 0.57168,-8.6462 2.8183,-12.287"
     fill="none"
     stroke="#000000"
     stroke-width="0.86876"
     id="path11" />
  <path
     d="m 353.58437,369.1217 c 2.4865,-4.0294 6.5911,-7.0279 11.186,-8.1715 l 8.9445,-5.5209 9.2647,-6.7581 13.891,-3.865 7.2659,6.6141 c 1.7889,3.4664 1.8828,7.7178 0.41013,11.33 -0.73635,1.806 -1.8296,3.4539 -3.1152,4.9206 -1.2856,1.4667 -2.7616,2.7524 -4.2406,4.0238 l -10.545,9.0658 -11.065,4.5603 c -3.5126,1.1289 -7.2654,1.5042 -10.932,1.0932 -4.9963,-0.55999 -9.818,-2.5959 -13.704,-5.7862 -0.40771,-3.9853 0.53535,-8.0968 2.6392,-11.506"
     fill="none"
     stroke="#000000"
     stroke-width="0.86876"
     id="path12" />
  <path
     d="m 397.63437,146.9117 c 2.2064,-3.5754 5.8485,-6.236 9.9255,-7.2508 l 7.9367,-4.8988 8.2208,-5.9966 12.326,-3.4296 6.4472,5.8689 c 1.5873,3.0758 1.6707,6.8482 0.3639,10.053 -0.65338,1.6025 -1.6235,3.0648 -2.7642,4.3662 -1.1407,1.3014 -2.4504,2.4423 -3.7628,3.5705 l -9.3572,8.0443 -9.8179,4.0465 c -3.1168,1.0017 -6.4468,1.3347 -9.7002,0.97003 -4.4334,-0.49689 -8.7118,-2.3034 -12.16,-5.1342 -0.36177,-3.5363 0.47503,-7.1845 2.3418,-10.21"
     fill="none"
     stroke="#000000"
     stroke-width="0.86876"
     id="path13" />
  <path
     d="m 399.86437,147.9217 c 2.0662,-3.3482 5.4768,-5.8397 9.2947,-6.79 l 7.4323,-4.5875 7.6984,-5.6156 11.543,-3.2116 6.0375,5.4959 c 1.4864,2.8803 1.5645,6.413 0.34077,9.4144 -0.61186,1.5007 -1.5203,2.87 -2.5886,4.0887 -1.0683,1.2187 -2.2947,2.2871 -3.5236,3.3436 l -8.7626,7.5331 -9.194,3.7893 c -2.9188,0.93802 -6.037,1.2498 -9.0838,0.90837 -4.1516,-0.46532 -8.1582,-2.157 -11.387,-4.8079 -0.33878,-3.3116 0.44484,-6.7279 2.193,-9.5608"
     fill="none"
     stroke="#000000"
     stroke-width="0.86876"
     id="path14" />
  <path
     d="m 267.33437,172.5217 -0.9853,-5.5833 4.9265,-8.2108 17.078,-4.9265 5.2549,4.2696 c 1.117,4.4773 0.12568,9.434 -2.6274,13.137 -1.7472,2.3502 -4.1674,4.1942 -6.8971,5.2549 l -11.495,0.65686 -5.2549,-4.598"
     fill="none"
     stroke="#000000"
     stroke-width="0.86876"
     id="path15" />
  <path
     d="m 268.53437,173.2517 -0.90438,-5.1249 4.522,-7.5366 15.676,-4.522 4.8234,3.919 c 1.0253,4.1097 0.11534,8.6594 -2.4117,12.059 -1.6038,2.1572 -3.8252,3.8498 -6.3308,4.8234 l -10.551,0.60293 -4.8234,-4.2205"
     fill="none"
     stroke="#000000"
     stroke-width="0.86876"
     id="path16" />
  <path
     d="m 172.00437,380.4517 -0.98529,-5.5833 4.9264,-8.2108 17.078,-4.9265 5.2549,4.2696 c 1.117,4.4773 0.12568,9.434 -2.6274,13.137 -1.7472,2.3502 -4.1674,4.1942 -6.8971,5.2549 l -11.495,0.65686 -5.2549,-4.598"
     fill="none"
     stroke="#000000"
     stroke-width="0.86876"
     id="path17" />
  <path
     d="m 173.21437,381.1817 -0.90439,-5.1249 4.522,-7.5366 15.676,-4.522 4.8234,3.919 c 1.0253,4.1097 0.11534,8.6594 -2.4117,12.059 -1.6038,2.1572 -3.8252,3.8498 -6.3308,4.8234 l -10.551,0.60292 -4.8234,-4.2205"
     fill="none"
     stroke="#000000"
     stroke-width="0.86876"
     id="path18" />
  <path
     d="m 223.61437,521.2617 -0.78203,-4.4315 3.9102,-6.517 13.555,-3.9102 4.1709,3.3888 c 0.88659,3.5537 0.0998,7.4878 -2.0854,10.427 -1.3868,1.8654 -3.3077,3.3289 -5.4743,4.1709 l -9.1237,0.52135 -4.1709,-3.6495"
     fill="none"
     opacity="0.5"
     stroke="#000000"
     stroke-width="0.86876"
     id="path19" />
  <path
     d="m 224.56437,521.8517 -0.71782,-4.0677 3.5891,-5.9819 12.442,-3.5891 3.8284,3.1106 c 0.81378,3.2619 0.0916,6.873 -1.9142,9.571 -1.2729,1.7122 -3.0361,3.0556 -5.0248,3.8284 l -8.3746,0.47852 -3.8284,-3.3498"
     fill="none"
     opacity="0.5"
     stroke="#000000"
     stroke-width="0.86876"
     id="path20" />
  <path
     d="m 241.71437,123.2417 c 0.66892,-0.94735 1.4137,-1.8411 2.2249,-2.6699 1.5482,-1.5818 3.367,-2.9643 4.4498,-4.8948 0.90065,-1.6057 1.2212,-3.5288 0.88996,-5.3398 0.45027,-1.1291 0.45027,-2.4307 0,-3.5598 -0.37835,-0.94877 -1.0544,-1.7583 -1.8431,-2.4074 -0.78866,-0.64911 -1.6896,-1.1476 -2.6067,-1.5974 -1.6915,-0.82954 -3.4751,-1.5108 -5.3398,-1.7799 -1.929,-0.27837 -3.9154,-0.10615 -5.7848,0.44497 -1.9394,0.57175 -3.7762,1.5486 -5.7848,1.7799 -0.45359,0.0522 -0.91206,0.067 -1.3611,0.14989 -0.449,0.0829 -0.89113,0.23996 -1.2561,0.51434 -0.36495,0.27437 -0.6401,0.66361 -0.78498,1.0966 -0.14487,0.43299 -0.15774,0.89743 -0.15774,1.354 v 4.0048 c 0,0.7629 0.0271,1.5298 0.18223,2.2768 0.15511,0.74696 0.42289,1.4653 0.70773,2.1731 0.91714,2.2788 1.9575,4.508 3.1149,6.6747 0.75836,0.41628 1.5007,0.86169 2.2249,1.3349 0.60173,0.39322 1.2046,0.7997 1.8809,1.0432 0.6763,0.2435 1.4051,0.29178 2.124,0.29178 h 3.5599 l 3.5599,-0.88995"
     fill="none"
     stroke="#000000"
     stroke-width="0.86876"
     id="path21" />
  <path
     d="m 242.00437,123.2417 c 0.61299,-0.86813 1.2955,-1.6872 2.0389,-2.4466 1.4188,-1.4496 3.0855,-2.7165 4.0778,-4.4855 0.82534,-1.4714 1.1191,-3.2338 0.81555,-4.8933 0.41262,-1.0347 0.41262,-2.2275 0,-3.2622 -0.34672,-0.86944 -0.96629,-1.6113 -1.689,-2.2062 -0.72271,-0.59484 -1.5484,-1.0517 -2.3888,-1.4638 -1.5501,-0.76018 -3.1846,-1.3845 -4.8933,-1.6311 -1.7677,-0.2551 -3.588,-0.0973 -5.3011,0.40778 -1.7772,0.52394 -3.4604,1.4191 -5.3011,1.6311 -0.41566,0.0479 -0.8358,0.0614 -1.2472,0.13738 -0.41146,0.076 -0.81662,0.2199 -1.151,0.47134 -0.33444,0.25144 -0.58658,0.60813 -0.71934,1.0049 -0.13276,0.3968 -0.14455,0.8224 -0.14455,1.2408 v 3.67 c 0,0.69911 0.0249,1.4019 0.167,2.0864 0.14214,0.6845 0.38754,1.3428 0.64856,1.9914 0.84046,2.0883 1.7938,4.1311 2.8544,6.1166 0.69494,0.3815 1.3752,0.78968 2.0389,1.2234 0.55142,0.36034 1.1038,0.73282 1.7236,0.95592 0.61978,0.22309 1.2876,0.26737 1.9464,0.26737 h 3.2622 l 3.2622,-0.81555"
     fill="none"
     stroke="#000000"
     stroke-width="0.86876"
     id="path22" />
  <path
     d="m 488.03437,463.0317 c 0.66892,-0.94735 1.4137,-1.8411 2.2249,-2.6699 1.5482,-1.5818 3.367,-2.9643 4.4498,-4.8948 0.90065,-1.6057 1.2212,-3.5288 0.88995,-5.3398 0.45027,-1.1291 0.45027,-2.4308 0,-3.5599 -0.37835,-0.94877 -1.0544,-1.7583 -1.8431,-2.4074 -0.78865,-0.64911 -1.6896,-1.1476 -2.6067,-1.5974 -1.6915,-0.82954 -3.4751,-1.5108 -5.3398,-1.7799 -1.929,-0.27837 -3.9154,-0.10614 -5.7848,0.44498 -1.9394,0.57175 -3.7762,1.5486 -5.7848,1.7799 -0.45359,0.0522 -0.91206,0.067 -1.3611,0.1499 -0.44904,0.0829 -0.89113,0.23996 -1.2561,0.51433 -0.36495,0.27438 -0.6401,0.66362 -0.78498,1.0966 -0.14487,0.43299 -0.15774,0.89743 -0.15774,1.354 v 4.0048 c 0,0.7629 0.0271,1.5298 0.18223,2.2768 0.15512,0.74696 0.4229,1.4653 0.70774,2.1731 0.91715,2.2788 1.9575,4.508 3.1149,6.6747 0.75836,0.41628 1.5007,0.8617 2.2249,1.3349 0.60173,0.39322 1.2046,0.79971 1.8809,1.0432 0.6763,0.24349 1.4051,0.29178 2.124,0.29178 h 3.5599 l 3.5599,-0.88997"
     fill="none"
     opacity="0.5"
     stroke="#000000"
     stroke-width="0.86876"
     id="path23" />
  <path
     d="m 488.32437,463.0317 c 0.61299,-0.86813 1.2955,-1.6872 2.0389,-2.4466 1.4188,-1.4496 3.0855,-2.7165 4.0778,-4.4856 0.82534,-1.4714 1.1191,-3.2338 0.81555,-4.8933 0.41262,-1.0347 0.41262,-2.2275 0,-3.2622 -0.34672,-0.86944 -0.96629,-1.6113 -1.689,-2.2062 -0.72271,-0.59483 -1.5484,-1.0517 -2.3888,-1.4638 -1.5501,-0.76018 -3.1846,-1.3845 -4.8933,-1.6311 -1.7677,-0.2551 -3.588,-0.0973 -5.3011,0.40778 -1.7772,0.52394 -3.4604,1.4191 -5.3011,1.6311 -0.41566,0.0479 -0.83579,0.0614 -1.2472,0.13738 -0.41146,0.076 -0.81661,0.21991 -1.151,0.47135 -0.33443,0.25144 -0.58657,0.60813 -0.71933,1.0049 -0.13276,0.3968 -0.14455,0.8224 -0.14455,1.2408 v 3.67 c 0,0.69911 0.0249,1.4019 0.16699,2.0864 0.14215,0.6845 0.38754,1.3428 0.64856,1.9914 0.84046,2.0883 1.7938,4.1311 2.8544,6.1166 0.69494,0.38149 1.3752,0.78968 2.0389,1.2234 0.55142,0.36034 1.1038,0.73283 1.7236,0.95592 0.61978,0.2231 1.2876,0.26738 1.9464,0.26738 h 3.2622 l 3.2622,-0.81555"
     fill="none"
     opacity="0.5"
     stroke="#000000"
     stroke-width="0.86876"
     id="path24" />
  <path
     d="m 137.66437,177.9617 c 0.3079,-0.43606 0.65072,-0.84745 1.0241,-1.2289 0.71263,-0.72809 1.5498,-1.3644 2.0482,-2.253 0.41456,-0.73907 0.5621,-1.6243 0.40965,-2.4578 0.20725,-0.51972 0.20725,-1.1188 0,-1.6386 -0.17415,-0.43671 -0.48535,-0.80934 -0.84837,-1.1081 -0.36301,-0.29878 -0.77772,-0.52824 -1.1998,-0.73526 -0.77858,-0.38183 -1.5996,-0.69542 -2.4578,-0.81928 -0.88787,-0.12813 -1.8022,-0.0489 -2.6626,0.20482 -0.89267,0.26318 -1.7381,0.71282 -2.6627,0.8193 -0.20878,0.024 -0.4198,0.0308 -0.62647,0.069 -0.20667,0.0382 -0.41017,0.11045 -0.57815,0.23674 -0.16799,0.12629 -0.29463,0.30545 -0.36131,0.50475 -0.0667,0.1993 -0.0726,0.41307 -0.0726,0.62323 v 1.8434 c 0,0.35115 0.0125,0.70415 0.0839,1.048 0.0714,0.34382 0.19465,0.67448 0.32575,1.0002 0.42214,1.0489 0.90098,2.075 1.4338,3.0723 0.34906,0.19161 0.69077,0.39662 1.0241,0.61445 0.27697,0.18099 0.55444,0.36809 0.86575,0.48016 0.31131,0.11206 0.64677,0.1343 0.97764,0.1343 h 1.6386 l 1.6386,-0.40962"
     fill="none"
     stroke="#000000"
     stroke-width="0.86876"
     id="path25" />
  <path
     d="m 137.79437,177.9617 c 0.28215,-0.39959 0.59631,-0.77657 0.93847,-1.1262 0.65305,-0.66721 1.4202,-1.2504 1.8769,-2.0646 0.37989,-0.67727 0.5151,-1.4885 0.37541,-2.2523 0.18993,-0.47626 0.18993,-1.0253 0,-1.5016 -0.15959,-0.40019 -0.44477,-0.74167 -0.77743,-1.0155 -0.33266,-0.2738 -0.71269,-0.48407 -1.0995,-0.67378 -0.71348,-0.3499 -1.4658,-0.63726 -2.2523,-0.75077 -0.81364,-0.11742 -1.6515,-0.0448 -2.44,0.18767 -0.81803,0.24116 -1.5928,0.65319 -2.44,0.75078 -0.19132,0.022 -0.38471,0.0283 -0.57409,0.0632 -0.18939,0.035 -0.37588,0.10122 -0.52982,0.21695 -0.15393,0.11573 -0.26999,0.27992 -0.3311,0.46255 -0.0611,0.18264 -0.0665,0.37854 -0.0665,0.57113 v 1.6892 c 0,0.32179 0.0114,0.64528 0.0769,0.96035 0.0654,0.31507 0.17838,0.61809 0.29852,0.91661 0.38684,0.9612 0.82565,1.9015 1.3139,2.8154 0.31988,0.1756 0.63301,0.36349 0.93847,0.56311 0.25381,0.16586 0.50808,0.33732 0.79336,0.44001 0.28527,0.10269 0.59268,0.12307 0.89588,0.12307 h 1.5016 l 1.5016,-0.37541"
     fill="none"
     stroke="#000000"
     stroke-width="0.86876"
     id="path26" />
  <path
     d="m 124.10437,315.8517 c -3.7073,-0.73548 -7.3099,-1.9964 -10.667,-3.7333 -7.5773,-3.9208 -13.970996,-10.529 -16.532996,-18.667 -1.4602,-4.6368 -1.647,-9.6679 -0.53333,-14.4 1.0413,-4.4243 3.1894,-8.542 5.920496,-12.175 2.7311,-3.6332 6.0381,-6.8013 9.5462,-9.6914 7.3653,-6.0678 15.807,-11.024 25.067,-13.333 4.1306,-1.0304 8.4249,-1.5266 12.66,-1.0973 4.2351,0.4293 8.4157,1.8131 11.873,4.2972 2.3813,1.711 4.4014,3.9361 5.8085,6.5086 1.4071,2.5726 2.193,5.4924 2.1915,8.4246 -0.001,2.8576 -0.73662,5.6646 -1.6302,8.3789 -0.89364,2.7143 -1.9524,5.3798 -2.6364,8.1543 -0.89856,3.645 -1.1353,7.4147 -1.6329,11.136 -0.4976,3.7213 -1.2865,7.4818 -3.1671,10.731 -1.8699,3.2306 -4.7307,5.7898 -7.8351,7.8624 -3.1044,2.0726 -6.4766,3.7042 -9.7648,5.4709 -1.8526,0.99534 -3.6859,2.0374 -5.6257,2.8497 -1.9398,0.81227 -4.0046,1.3936 -6.1076,1.4169 -2.4569,0.0272 -4.9167,-0.72959 -6.9333,-2.1333"
     fill="none"
     stroke="#000000"
     stroke-width="0.86876"
     id="path27" />
  <path
     d="m 125.24437,316.0617 c -3.4465,-0.68377 -6.7957,-1.856 -9.9163,-3.4707 -7.0443,-3.645 -12.988,-9.7884 -15.369996,-17.354 -1.3575,-4.3107 -1.5312,-8.9879 -0.4958,-13.387 0.968026,-4.1131 2.964996,-7.9412 5.503996,-11.319 2.539,-3.3776 5.6134,-6.3229 8.8747,-9.0097 6.8473,-5.641 14.696,-10.248 23.303,-12.395 3.84,-0.9579 7.8323,-1.4193 11.77,-1.0201 3.9375,0.39919 7.8238,1.6856 11.038,3.995 2.2138,1.5907 4.0918,3.6592 5.3999,6.0508 1.3081,2.3916 2.0388,5.1061 2.0374,7.832 -0.001,2.6566 -0.6848,5.2662 -1.5156,7.7896 -0.83078,2.5234 -1.8151,5.0014 -2.451,7.5808 -0.83536,3.3886 -1.0555,6.8932 -1.5181,10.352 -0.4626,3.4588 -1.196,6.9555 -2.9443,9.9761 -1.7383,3.0034 -4.3979,5.3826 -7.284,7.3094 -2.8861,1.9268 -6.0211,3.4437 -9.078,5.0861 -1.7223,0.92533 -3.4266,1.8941 -5.23,2.6493 -1.8034,0.75514 -3.723,1.2956 -5.678,1.3173 -2.2841,0.0253 -4.5708,-0.67827 -6.4456,-1.9833"
     fill="none"
     stroke="#000000"
     stroke-width="0.86876"
     id="path28" />
  <path
     d="m 471.05437,243.6317 c -1.4568,-0.28903 -2.8726,-0.78453 -4.1917,-1.4671 -2.9777,-1.5408 -5.49,-4.1376 -6.4971,-7.3354 -0.57384,-1.8221 -0.64723,-3.7992 -0.20958,-5.6588 0.40919,-1.7386 1.2533,-3.3568 2.3266,-4.7845 1.0732,-1.4277 2.3728,-2.6727 3.7514,-3.8084 2.8944,-2.3845 6.2119,-4.332 9.8504,-5.2396 1.6232,-0.40491 3.3107,-0.59993 4.9752,-0.43118 1.6644,0.16874 3.3071,0.7125 4.6657,1.6887 0.93577,0.67238 1.7296,1.5468 2.2826,2.5577 0.553,1.0109 0.8618,2.1584 0.8612,3.3106 -5.8e-4,1.123 -0.28947,2.226 -0.64064,3.2927 -0.35118,1.0666 -0.76724,2.1141 -1.036,3.2044 -0.35311,1.4324 -0.44615,2.9138 -0.64168,4.376 -0.19553,1.4622 -0.50555,2.9401 -1.2446,4.2169 -0.7348,1.2696 -1.859,2.2752 -3.079,3.0897 -1.22,0.8145 -2.5451,1.4556 -3.8373,2.1499 -0.72801,0.39114 -1.4484,0.80065 -2.2108,1.1198 -0.7623,0.31921 -1.5737,0.54766 -2.4001,0.55682 -0.9655,0.0107 -1.9321,-0.28671 -2.7246,-0.83834"
     fill="none"
     stroke="#000000"
     stroke-width="0.86876"
     id="path29" />
  <path
     d="m 471.50437,243.7217 c -1.3544,-0.26871 -2.6705,-0.72936 -3.8968,-1.3639 -2.7682,-1.4324 -5.1039,-3.8466 -6.0401,-6.8195 -0.53347,-1.694 -0.6017,-3.532 -0.19483,-5.2607 0.38041,-1.6163 1.1652,-3.1207 2.1629,-4.448 0.99774,-1.3273 2.2059,-2.4847 3.4875,-3.5406 2.6908,-2.2168 5.7749,-4.0273 9.1576,-4.8711 1.509,-0.37643 3.0778,-0.55773 4.6252,-0.40086 1.5473,0.15687 3.0745,0.66238 4.3375,1.5699 0.86995,0.62509 1.608,1.438 2.122,2.3778 0.51405,0.93985 0.80118,2.0065 0.80063,3.0778 -5.4e-4,1.044 -0.26911,2.0695 -0.59558,3.0611 -0.32647,0.9916 -0.71327,1.9654 -0.96316,2.979 -0.32827,1.3316 -0.41478,2.7088 -0.59656,4.0682 -0.18178,1.3594 -0.47001,2.7333 -1.157,3.9203 -0.68312,1.1802 -1.7282,2.1152 -2.8624,2.8724 -1.1341,0.7572 -2.3661,1.3533 -3.5674,1.9987 -0.67681,0.36363 -1.3466,0.74433 -2.0553,1.0411 -0.70868,0.29675 -1.463,0.50913 -2.2313,0.51765 -0.8976,0.01 -1.7962,-0.26653 -2.533,-0.77935"
     fill="none"
     stroke="#000000"
     stroke-width="0.86876"
     id="path30" />
  <path
     d="m 318.72437,101.7217 c -1.313,-0.26048 -2.5888,-0.70704 -3.7776,-1.3222 -2.6836,-1.388601 -4.9478,-3.728901 -5.8554,-6.610901 -0.51716,-1.6422 -0.5833,-3.424 -0.18888,-5.0999 0.36877,-1.5669 1.1296,-3.0252 2.0968,-4.3119 0.96723,-1.2867 2.1384,-2.4087 3.3808,-3.4323 2.6085,-2.149 5.5983,-3.9041 8.8775,-4.7221 1.4629,-0.36492 2.9837,-0.54067 4.4838,-0.3886 1.5,0.15208 2.9805,0.64214 4.2049,1.5219 0.84334,0.60597 1.5588,1.394 2.0571,2.3051 0.49832,0.9111 0.77667,1.9452 0.77613,2.9836 -5.3e-4,1.0121 -0.26088,2.0062 -0.57737,2.9675 -0.31649,0.9613 -0.69146,1.9053 -0.9337,2.8879 -0.31823,1.2909 -0.40208,2.626 -0.5783,3.9438 -0.17622,1.3178 -0.45563,2.6497 -1.1216,3.8004 -0.66223,1.1442 -1.6754,2.0505 -2.7749,2.7845 -1.0995,0.73404 -2.2938,1.311901 -3.4583,1.937601 -0.65611,0.35251 -1.3054,0.72157 -1.9924,1.0092 -0.68701,0.28768 -1.4183,0.49357 -2.163,0.50183 -0.87015,0.01 -1.7413,-0.25838 -2.4555,-0.75552"
     fill="none"
     stroke="#000000"
     stroke-width="0.86876"
     id="path31" />
  <path
     d="m 319.13437,101.7917 c -1.2206,-0.24216 -2.4068,-0.65731 -3.512,-1.2292 -2.4948,-1.290901 -4.5998,-3.466601 -5.4435,-6.145901 -0.48078,-1.5266 -0.54227,-3.1831 -0.17559,-4.7411 0.34283,-1.4567 1.0501,-2.8124 1.9493,-4.0086 0.8992,-1.1962 1.988,-2.2393 3.143,-3.1909 2.425,-1.9978 5.2046,-3.6295 8.2531,-4.3899 1.36,-0.33924 2.7738,-0.50264 4.1684,-0.36126 1.3945,0.14137 2.7708,0.59695 3.9091,1.4148 0.78403,0.56335 1.4492,1.2959 1.9124,2.143 0.46328,0.84701 0.72205,1.8084 0.72155,2.7738 -4.9e-4,0.94087 -0.24253,1.8651 -0.53676,2.7587 -0.29423,0.8936 -0.64283,1.7713 -0.86803,2.6848 -0.29585,1.2001 -0.3738,2.4413 -0.53763,3.6664 -0.16382,1.2251 -0.42358,2.4634 -1.0427,3.5331 -0.61564,1.0637 -1.5576,1.9063 -2.5797,2.5887 -1.0221,0.68241 -2.1324,1.219601 -3.215,1.801301 -0.60996,0.32771 -1.2136,0.67081 -1.8522,0.93825 -0.63868,0.26743 -1.3185,0.45883 -2.0109,0.46651 -0.80894,0.009 -1.6188,-0.24022 -2.2828,-0.70239"
     fill="none"
     stroke="#000000"
     stroke-width="0.86876"
     id="path32" />
  <path
     d="m 387.48437,290.3617 c -1.0613,-0.73856 -1.9152,-1.772 -2.4403,-2.9536 -0.52515,-1.1816 -0.72007,-2.5079 -0.55709,-3.7906 0.20937,-1.6478 0.99941,-3.1902 2.0842,-4.448 1.0848,-1.2578 2.4548,-2.2456 3.9105,-3.0455 3.1385,-1.7245 6.6877,-2.6031 10.25,-2.9668 3.5625,-0.36369 7.156,-0.22897 10.732,-0.0306 4.9947,0.27715 9.9852,0.67789 14.987,0.74936 4.3605,0.0623 8.9036,-0.17246 12.739,-2.2481 4.1159,-2.2274 6.8997,-6.3048 8.9922,-10.491 1.4672,-2.9351 2.7551,-6.1061 5.2455,-8.2428 1.4201,-1.2185 3.1782,-2.0302 5.0194,-2.364 1.8412,-0.33383 3.7611,-0.19358 5.5479,0.36227 3.5735,1.1117 6.5264,3.8832 8.1665,7.2471 1.3897,2.8502 1.8814,6.0573 2.0436,9.2241 0.16227,3.1668 0.013,6.3444 0.20442,9.5096 0.12237,2.0236 0.3839,4.0406 0.3884,6.0678 0.004,2.0273 -0.2609,4.0939 -1.1377,5.9218 -0.95578,1.9924 -2.5963,3.5999 -4.4554,4.7944 -1.8591,1.1945 -3.9381,2.0034 -6.0355,2.6992 -4.1453,1.3752 -8.4214,2.3387 -12.739,2.9974 -6.2182,0.9486 -12.521,1.267 -18.734,2.2481 -6.4728,1.022 -13.053,2.7637 -19.483,1.4987 -3.8791,-0.76316 -7.4613,-2.5852 -11.24,-3.7468 -3.1515,-0.96869 -6.4446,-1.4753 -9.7416,-1.4987 l -3.7467,-7.4935"
     fill="none"
     stroke="#000000"
     stroke-width="0.86876"
     id="path33" />
  <path
     d="m 391.91437,291.2317 c -0.98527,-0.68562 -1.7779,-1.645 -2.2654,-2.7419 -0.48751,-1.0969 -0.66845,-2.3281 -0.51714,-3.5189 0.19438,-1.5297 0.9278,-2.9615 1.9349,-4.1292 1.0071,-1.1677 2.2788,-2.0846 3.6302,-2.8272 2.9135,-1.6009 6.2083,-2.4165 9.5155,-2.7542 3.3072,-0.33763 6.6431,-0.21259 9.9623,-0.0284 4.6367,0.25727 9.2694,0.62929 13.913,0.69565 4.048,0.0579 8.2654,-0.16007 11.826,-2.0869 3.8209,-2.0677 6.4052,-5.8529 8.3477,-9.7389 1.362,-2.7247 2.5576,-5.6684 4.8695,-7.652 1.3183,-1.1311 2.9504,-1.8846 4.6596,-2.1945 1.7092,-0.3099 3.4915,-0.17969 5.1502,0.33632 3.3174,1.032 6.0585,3.6049 7.5811,6.7277 1.2901,2.6459 1.7465,5.6231 1.8972,8.5629 0.15065,2.9398 0.0121,5.8897 0.18978,8.828 0.1136,1.8785 0.35638,3.751 0.36056,5.6329 0.004,1.8819 -0.24221,3.8005 -1.0562,5.4973 -0.88727,1.8496 -2.4102,3.3418 -4.136,4.4507 -1.7258,1.1089 -3.6558,1.8598 -5.6029,2.5057 -3.8482,1.2766 -7.8178,2.1711 -11.826,2.7825 -5.7725,0.8806 -11.623,1.1762 -17.391,2.087 -6.0089,0.94879 -12.118,2.5655 -18.087,1.3912 -3.601,-0.70846 -6.9265,-2.3999 -10.435,-3.4782 -2.9256,-0.89924 -5.9827,-1.3696 -9.0433,-1.3912 l -3.4782,-6.9564"
     fill="none"
     stroke="#000000"
     stroke-width="0.86876"
     id="path34" />
  <path
     d="m 346.11437,415.3417 c 9.3897,0.77883 18.992,-1.0964 28.189,0.95019 3.4438,0.76633 6.8079,2.1021 9.5842,4.279 2.7763,2.1769 4.9319,5.2467 5.619,8.7071 0.5326,2.6824 0.14411,5.5758 -1.2669,7.9184 -0.968,1.6071 -2.3767,2.914 -3.9263,3.9716 -1.5496,1.0576 -3.2449,1.8808 -4.9423,2.6798 -11.963,5.6313 -24.545,10.305 -37.682,11.809 -13.137,1.5043 -26.938,-0.35229 -38.334,-7.058 -6.296,-3.7048 -11.75,-8.8314 -15.837,-14.887 -0.54055,-3.3569 -0.21171,-6.85 0.94582,-10.047 1.1575,-3.197 3.1412,-6.0909 5.7056,-8.3236 3.3858,-2.9478 7.7087,-4.6958 12.137,-5.4301 4.4287,-0.73439 8.9726,-0.49754 13.409,0.18607 8.8737,1.3672 17.45,4.5019 26.397,5.2441"
     fill="none"
     stroke="#000000"
     stroke-width="0.86876"
     id="path35" />
  <path
     d="m 347.15437,417.0617 c 8.9405,0.74157 18.084,-1.0439 26.841,0.90474 3.279,0.72966 6.4822,2.0015 9.1257,4.0742 2.6435,2.0728 4.6959,4.9956 5.3502,8.2905 0.50712,2.554 0.13721,5.309 -1.2063,7.5395 -0.92169,1.5302 -2.263,2.7746 -3.7384,3.7816 -1.4754,1.007 -3.0896,1.7908 -4.7058,2.5516 -11.391,5.3619 -23.371,9.8117 -35.879,11.244 -12.508,1.4323 -25.649,-0.33545 -36.5,-6.7203 -5.9948,-3.5275 -11.188,-8.4089 -15.079,-14.174 -0.51468,-3.1962 -0.20157,-6.5222 0.90058,-9.5663 1.10215,-3.0441 2.991,-5.7995 5.4326,-7.9254 3.2238,-2.8068 7.3399,-4.4711 11.557,-5.1703 4.2168,-0.69925 8.5433,-0.47373 12.768,0.17717 8.4492,1.3018 16.615,4.2865 25.134,4.9932"
     fill="none"
     stroke="#000000"
     stroke-width="0.86876"
     id="path36" />
  <path
     d="m 204.50437,163.1617 c 5.6193,0.4661 11.366,-0.65612 16.87,0.56865 2.061,0.45861 4.0742,1.258 5.7357,2.5608 1.6615,1.3028 2.9515,3.1399 3.3627,5.2108 0.31874,1.6053 0.0862,3.3368 -0.7582,4.7388 -0.57931,0.96176 -1.4224,1.7439 -2.3497,2.3768 -0.92735,0.63293 -1.9419,1.1256 -2.9577,1.6037 -7.1595,3.3701 -14.689,6.1669 -22.551,7.0671 -7.862,0.9002 -16.121,-0.21083 -22.941,-4.2239 -3.7679,-2.2171 -7.0318,-5.2852 -9.4776,-8.9089 -0.32349,-2.0089 -0.12669,-4.0994 0.56604,-6.0126 0.69273,-1.9132 1.8799,-3.6452 3.4145,-4.9813 2.0262,-1.7642 4.6133,-2.8102 7.2637,-3.2497 2.6504,-0.4395 5.3697,-0.29775 8.025,0.11135 5.3105,0.81822 10.443,2.6942 15.798,3.1383"
     fill="none"
     stroke="#000000"
     stroke-width="0.86876"
     id="path37" />
  <path
     d="m 205.13437,164.1917 c 5.3505,0.44381 10.822,-0.62469 16.063,0.54147 1.9624,0.43667 3.8793,1.1978 5.4613,2.4382 1.582,1.2404 2.8103,2.9896 3.2018,4.9615 0.30348,1.5285 0.0821,3.1772 -0.72194,4.512 -0.55159,0.91574 -1.3543,1.6605 -2.2373,2.2631 -0.88298,0.60265 -1.849,1.0717 -2.8162,1.527 -6.8169,3.2089 -13.987,5.8718 -21.472,6.729 -7.4855,0.85717 -15.35,-0.20075 -21.844,-4.0218 -3.5876,-2.1111 -6.6954,-5.0323 -9.0241,-8.4826 -0.30802,-1.9128 -0.12064,-3.9033 0.53895,-5.725 0.65958,-1.8217 1.7899,-3.4708 3.2512,-4.743 1.9293,-1.6798 4.3926,-2.6757 6.9162,-3.0942 2.5236,-0.41848 5.1128,-0.28352 7.641,0.10602 5.0564,0.77906 9.9432,2.5653 15.042,2.9882"
     fill="none"
     stroke="#000000"
     stroke-width="0.86876"
     id="path38" />
  <path
     transform="matrix(1.3609,0,0,1.3609,-134.82263,-221.2583)"
     d="m 239.32,516.04 c -9.2262,-7.6345 -17.848,-15.999 -25.759,-24.989 -8.0637,-9.1646 -15.389,-18.981 -21.84,-29.344 -9.1735,-14.737 -16.545,-30.515 -23.524,-46.409 -4.5142,-10.28 -8.9007,-20.71 -11.201,-31.699 -2.6212,-12.523 -2.4636,-25.508 -0.77997,-38.191 1.2214,-9.2005 3.2714,-18.39 7.3358,-26.734 4.0878,-8.392 10.081,-15.677 15.827,-23.033 5.4025,-6.9157 10.678,-14.015 17.228,-19.856 5.5443,-4.944 11.89,-8.8854 18.035,-13.059 6.5601,-4.4558 12.92,-9.1988 19.218,-14.019 7.6074,-5.8224 15.17,-11.788 23.578,-16.379 7.2665,-3.9674 15.111,-6.8673 23.202,-8.6228 14.23,-3.0875 28.964,-2.6183 43.51,-1.9573 11.665,0.53004 23.491,1.2042 34.566,4.9048 18.149,6.0644 32.642,19.644 46.361,32.985 6.647,6.4636 13.276,12.98 19.115,20.182 11.522,14.214 19.945,31.527 20.788,49.805 0.76384,16.561 -4.9336,33.336 -15.625,46.007 -8.5882,-17.314 -18.355,-34.043 -29.209,-50.034 -3.3906,-4.995 -7.0043,-10.034 -12.029,-13.38 -4.7892,-3.1893 -10.501,-4.6041 -16.024,-6.2186 -6.1703,-1.8039 -12.252,-3.9226 -18.166,-6.442 -4.4796,-1.9083 -8.8656,-4.0472 -13.44,-5.716 -4.5743,-1.6688 -9.3848,-2.8676 -14.254,-2.8025 -8.872,0.1186 -17.18,4.4036 -24.385,9.5821 -5.9575,4.282 -11.426,9.2444 -16.264,14.76 -0.2724,2.5754 -0.39799,5.1662 -0.37596,7.7559 0.0415,4.8768 0.60266,9.7995 -0.24663,14.602 -0.42464,2.4012 -1.2104,4.7603 -2.5167,6.8194 -1.3062,2.0591 -3.1542,3.8089 -5.3845,4.7948 -2.1817,0.96438 -4.6377,1.1676 -7.0146,0.96718 -2.3769,-0.20043 -4.7017,-0.78705 -7.02,-1.3485 -7.6239,-1.8463 -15.39,-3.4705 -22.45,-6.8889 -1.3018,-0.63028 -2.5792,-1.3215 -3.9398,-1.8119 -1.3606,-0.49044 -2.8276,-0.77561 -4.2576,-0.55887 -1.1667,0.17683 -2.275,0.68775 -3.1962,1.4252 -0.9212,0.73745 -1.6569,1.697 -2.1715,2.7589 -1.0292,2.1238 -1.1574,4.6072 -0.69418,6.9213 0.92641,4.6282 4.0081,8.4702 6.411,12.533 1.7656,2.9851 3.1968,6.1655 5.0931,9.0694 1.8963,2.9038 4.3472,5.5809 7.5247,6.9708 2.5275,1.1056 5.3379,1.3272 8.0851,1.5785 2.7472,0.25131 5.5638,0.56784 8.0152,1.8332 2.1507,1.1101 3.9059,2.9117 5.1408,4.9932 1.2349,2.0815 1.9671,4.4356 2.3401,6.827 0.74605,4.7827 0.0858,9.6551 -0.26429,14.483 -0.22271,3.0712 -0.32176,6.1696 -0.99735,9.1738 -0.67558,3.0042 -1.9858,5.9591 -4.262,8.033 -2.1719,1.9789 -5.0274,2.9998 -7.8126,3.9356 -2.7852,0.9358 -5.654,1.8726 -7.9279,3.7333 -1.7949,1.4686 -3.109,3.4251 -4.5265,5.2605 -1.4175,1.8354 -3.0332,3.6277 -5.1586,4.5557 -2.1599,0.94304 -4.6869,0.88331 -6.8993,0.0712 -2.2124,-0.81211 -4.1216,-2.3335 -5.6193,-4.1532 -2.9955,-3.6394 -4.3451,-8.3121 -5.8602,-12.776 -0.35193,-1.0368 -0.71861,-2.0742 -1.2368,-3.0387 -0.5182,-0.9645 -1.1972,-1.86 -2.0825,-2.5043 -1.0666,-0.77619 -2.4056,-1.154 -3.7239,-1.1067 -1.3183,0.0474 -2.6106,0.51095 -3.6925,1.2656 -1.0819,0.75465 -1.9551,1.7938 -2.5647,2.9636 -0.60964,1.1698 -0.95945,2.4677 -1.0793,3.7814 -0.23979,2.6273 0.4323,5.2706 1.4892,7.6879 1.0569,2.4173 2.4908,4.6469 3.865,6.899 6.1294,10.045 11.475,21.091 20.881,28.162 3.1034,2.3329 6.583,4.1641 10.263,5.4012 2.5121,5.422 4.68,11.004 6.4862,16.7 2.5421,8.0172 4.3669,16.262 5.4452,24.603 l -14.329,-1.7112"
     fill="url(#c)"
     filter="url(#d)"
     opacity="0.80408"
     id="path39"
     style="fill:url(#c)" />
  <path
     transform="matrix(1.8798,-0.24188,0.24188,1.8798,-390.67563,-333.9083)"
     d="m 292.84,508.9 c 3.1074,-1.544 6.0747,-3.3701 8.8534,-5.4483 2.1125,-1.58 4.126,-3.3154 5.8116,-5.3446 1.6856,-2.0292 3.0397,-4.366 3.7229,-6.914 0.71449,-2.6647 0.6757,-5.5078 0.0387,-8.1921 -0.63701,-2.6843 -1.8605,-5.2125 -3.4438,-7.4717 -1.9121,-2.7282 -4.3277,-5.0562 -6.592,-7.5 -2.2643,-2.4438 -4.4229,-5.073 -5.6666,-8.1637 -0.95297,-2.3683 -1.3359,-4.9386 -1.3621,-7.4914 -0.0307,-2.9991 0.42464,-6.0044 1.3621,-8.8534 1.4083,-4.2802 3.8816,-8.1532 6.8103,-11.578 1.2755,-1.4914 2.7042,-2.908 4.473,-3.7582 0.88438,-0.42507 1.8358,-0.70576 2.806,-0.85215 0.97026,-0.14639 1.9552,-0.15693 2.9365,-0.15693 h 10.215 c 2.0036,0 4.0218,0.0995 5.9622,0.5991 1.9403,0.49965 3.7714,1.3412 5.6154,2.125 6.8726,2.9213 14.358,4.7828 21.793,4.0862 3.9033,-0.36572 7.7062,-1.4249 11.578,-2.0431 3.1501,-0.50306 6.3446,-0.71338 9.5344,-0.68103 1.7964,0.0182 3.6022,0.11457 5.3554,0.50629 1.7532,0.39172 3.4609,1.0911 4.86,2.2178 1.9505,1.5708 3.1893,3.8788 3.9452,6.2664 0.7559,2.3876 1.0748,4.8868 1.503,7.3543 0.51809,2.9856 1.2005,5.9427 2.0431,8.8534 1.2552,1.6767 2.6212,3.2704 4.0862,4.7672 2.8352,2.8969 6.044,5.4305 9.5344,7.4914 1.5418,0.91034 3.1602,1.7175 4.8892,2.1825 1.729,0.465 3.5357,0.54164 5.3262,0.54164 h 12.94 l 4.0862,6.8103 c -3.4328,4.0343 -8.3753,6.7526 -13.621,7.4914 -3.1529,0.44402 -6.3565,0.19597 -9.5344,0 -4.0848,-0.25189 -8.1746,-0.41631 -12.259,-0.68103 -4.3138,-0.27962 -8.669,-0.66951 -12.94,0 -3.5589,0.55794 -6.9702,1.8414 -10.215,3.4052 -4.4953,2.166 -8.7834,4.9046 -13.621,6.1293 -3.1146,0.78855 -6.3522,0.91993 -9.5344,1.3621 -4.0015,0.55596 -7.9548,1.6172 -11.578,3.4052 -5.0318,2.4833 -9.3059,6.2984 -14.302,8.8534 -3.6507,1.8671 -7.6167,3.0255 -11.578,4.0862 -4.6954,1.2574 -9.4518,2.3977 -14.302,2.7241 -5.5119,0.37097 -11.094,-0.32676 -16.345,-2.0431 l 6.8103,-4.0862"
     fill="url(#b)"
     filter="url(#e)"
     id="path40"
     style="fill:url(#b)" />
  <path
     d="m 99.424374,383.5917 c -0.34454,4.1669 -0.34454,8.3622 0,12.529 1.152096,13.933 6.157496,27.363 13.155996,39.466 3.8884,6.7253 8.4651,13.164 14.408,18.167 5.388,4.5353 11.743,7.7628 18.167,10.65 3.2627,1.4663 6.5754,2.861 10.041,3.7467 3.4656,0.88567 7.1076,1.2509 10.632,0.63851 2.5199,-0.43786 5.0033,-1.4065 6.891,-3.1323 2.384,-2.1795 3.6256,-5.4119 3.8739,-8.6324 0.2483,-3.2205 -0.41678,-6.4478 -1.3681,-9.5347 -1.1836,-3.8407 -2.84,-7.5819 -5.3218,-10.743 -2.4818,-3.1611 -5.841,-5.7211 -9.7131,-6.7976 -2.4493,-0.68095 -5.0239,-0.758 -7.5174,-1.2529 -3.9182,-0.77765 -7.578,-2.5805 -10.877,-4.8336 -3.2986,-2.253 -6.2636,-4.955 -9.1698,-7.6955 -1.1327,-1.0681 -2.2572,-2.1939 -2.9402,-3.593 -0.34154,-0.69951 -0.57025,-1.4525 -0.68986,-2.2217 -0.11961,-0.7692 -0.12863,-1.5508 -0.12863,-2.3292 v -9.3968 c 0,-2.9258 0.37777,-5.869 0,-8.7703 -0.32916,-2.528 -1.4197,-4.917 -2.8896,-7 -1.4698,-2.083 -3.3116,-3.8783 -5.2543,-5.529 -2.1664,-1.8408 -4.4722,-3.5177 -6.891,-5.0116 -2.0489,-0.49524 -4.2157,-0.49524 -6.2645,0 -2.1178,0.5119 -4.1232,1.5662 -5.6381,3.1322 -1.1827,1.2227 -2.052796,2.7454 -2.505796,4.3852 v 3.7587"
     fill="none"
     stroke="#000000"
     stroke-width="0.91986px"
     id="path41" />
  <path
     d="m 103.14437,386.6017 c -0.32746,3.9603 -0.32746,7.9477 0,11.908 1.095,13.243 5.8523,26.007 12.503,37.51 3.6957,6.392 8.0455,12.512 13.694,17.267 5.121,4.3105 11.161,7.378 17.267,10.122 3.101,1.3936 6.2495,2.7192 9.5434,3.561 3.2938,0.84177 6.7554,1.1889 10.105,0.60685 2.395,-0.41616 4.7553,-1.3368 6.5494,-2.977 2.2658,-2.0714 3.4458,-5.1437 3.6819,-8.2046 0.23602,-3.0609 -0.39613,-6.1282 -1.3003,-9.062 -1.125,-3.6504 -2.6992,-7.2061 -5.058,-10.211 -2.3588,-3.0044 -5.5514,-5.4375 -9.2316,-6.4607 -2.3279,-0.6472 -4.7749,-0.72044 -7.1448,-1.1908 -3.724,-0.73911 -7.2024,-2.4526 -10.337,-4.594 -3.1351,-2.1414 -5.9531,-4.7094 -8.7153,-7.314 -1.0766,-1.0152 -2.1453,-2.0852 -2.7945,-3.4149 -0.32461,-0.66483 -0.54199,-1.3805 -0.65567,-2.1116 -0.11367,-0.73107 -0.12225,-1.4739 -0.12225,-2.2137 v -8.931 c 0,-2.7808 0.35904,-5.5781 0,-8.3356 -0.31284,-2.4027 -1.3494,-4.6733 -2.7463,-6.653 -1.3969,-1.9797 -3.1475,-3.6861 -4.9939,-5.255 -2.0591,-1.7496 -4.2505,-3.3434 -6.5494,-4.7632 -1.9473,-0.47069 -4.0067,-0.47069 -5.954,0 -2.0128,0.48653 -3.9189,1.4886 -5.3586,2.977 -1.1241,1.1621 -1.9511,2.6093 -2.3816,4.1678 v 3.5724"
     fill="none"
     stroke="#000000"
     stroke-width="0.87426px"
     id="path42" />
  <path
     d="m 490.98437,332.3517 c -4.2452,2.7192 -8.4778,5.458 -12.698,8.2162 -4.2483,6.6084 -6.3691,14.562 -5.9754,22.408 0.2256,4.4963 1.2684,8.9731 3.2642,13.008 1.9958,4.0354 4.9615,7.6183 8.6866,10.146 3.7397,2.538 8.1673,3.9684 12.658,4.4795 4.4907,0.5111 9.0501,0.12845 13.485,-0.74482 4.6686,-0.91939 9.2568,-2.394 13.412,-4.7122 4.1554,-2.3182 7.8727,-5.5053 10.489,-9.4795 2.9773,-4.5217 4.4511,-9.9936 4.276,-15.405 -0.1751,-5.411 -1.9803,-10.741 -5.0229,-15.219 -2.8916,-4.2557 -6.848,-7.7186 -11.204,-10.457 -6.9374,-4.3614 -14.977,-6.9546 -23.155,-7.4693 -2.7439,1.7347 -5.4826,3.4775 -8.2162,5.2285"
     fill="none"
     opacity="0.6"
     stroke="#000000"
     stroke-width="0.86876"
     id="path43" />
  <path
     d="m 494.18437,336.2817 c -3.963,2.5385 -7.9144,5.0952 -11.854,7.6701 -3.9659,6.1692 -5.9458,13.594 -5.5783,20.919 0.21061,4.1974 1.1841,8.3767 3.0472,12.144 1.8632,3.7672 4.6317,7.1119 8.1093,9.472 3.4912,2.3693 7.6245,3.7046 11.817,4.1818 4.1925,0.4772 8.4486,0.11991 12.588,-0.69532 4.3584,-0.85828 8.6416,-2.2348 12.521,-4.399 3.8794,-2.1642 7.3494,-5.1394 9.7923,-8.8494 2.7794,-4.2212 4.1552,-9.3294 3.9918,-14.381 -0.16347,-5.0514 -1.8487,-10.027 -4.6891,-14.208 -2.6994,-3.9729 -6.3929,-7.2056 -10.459,-9.762 -6.4763,-4.0715 -13.981,-6.4924 -21.616,-6.9728 -2.5615,1.6194 -5.1182,3.2464 -7.6701,4.881"
     fill="none"
     opacity="0.6"
     stroke="#000000"
     stroke-width="0.86876"
     id="path44" />
  <path
     d="m 351.68437,548.7217 c -8.6035,-2.3217 -16.65,-6.6803 -23.295,-12.618 -4.2744,-3.8196 -8.0554,-8.4358 -9.7306,-13.918 -0.83765,-2.741 -1.1256,-5.668 -0.66923,-8.4976 0.45637,-2.8296 1.6748,-5.5556 3.6055,-7.6739 2.3409,-2.5683 5.6332,-4.1485 9.0398,-4.8344 3.4067,-0.6859 6.9352,-0.52808 10.373,-0.0187 4.9481,0.73325 9.8133,2.2023 14.197,4.6109 4.3837,2.4086 8.2779,5.7773 11.039,9.9484 2.1493,3.247 3.5968,6.9663 4.1274,10.824 0.53051,3.8576 0.13608,7.8487 -1.2155,11.5 -0.90744,2.4518 -2.2511,4.7588 -4.0602,6.6461 -1.8091,1.8873 -4.0941,3.3441 -6.6167,4.0307 -2.2112,0.60188 -4.5832,0.60188 -6.7944,0"
     fill-opacity="0.21154"
     opacity="0.5"
     stroke="#000000"
     stroke-width="0.86876"
     id="path45" />
  <path
     d="m 353.39437,548.7217 c -7.8172,-2.1095 -15.128,-6.0697 -21.166,-11.465 -3.8837,-3.4705 -7.3191,-7.6648 -8.8413,-12.646 -0.76109,-2.4905 -1.0227,-5.15 -0.60806,-7.721 0.41469,-2.571 1.5217,-5.0478 3.276,-6.9725 2.1269,-2.3336 5.1183,-3.7694 8.2136,-4.3926 3.0953,-0.62321 6.3013,-0.47982 9.4246,-0.017 4.4958,0.66623 8.9164,2.0011 12.9,4.1895 3.9833,2.1885 7.5213,5.2493 10.03,9.0392 1.9528,2.9502 3.2681,6.3296 3.7501,9.8346 0.482,3.505 0.12365,7.1314 -1.1044,10.449 -0.8245,2.2277 -2.0453,4.3239 -3.6891,6.0387 -1.6438,1.7148 -3.7199,3.0384 -6.012,3.6623 -2.0091,0.54687 -4.1643,0.54687 -6.1734,0"
     fill="#767364"
     opacity="0.5"
     stroke="#000000"
     stroke-width="0.86876"
     id="path46" />
  <path
     d="m 225.17437,112.6917 c -0.64915,-3.0269 -0.57087,-6.7371 0.16437,-7.7867 0.34619,-0.49424 1.3108,-1.0073 2.1964,-1.1681 0.8685,-0.15776 3.1414,-0.76937 5.0509,-1.3592 4.4099,-1.3622 7.4513,-1.2009 11.428,0.606 1.5219,0.69156 2.8979,1.469 3.0578,1.7278 0.40973,0.66293 0.0749,0.58902 -1.5128,-0.33393 -0.76098,-0.44237 -2.4975,-1.1238 -3.859,-1.5143 -2.8349,-0.81305 -5.1034,-0.66398 -9.365,0.61537 -1.5412,0.4627 -3.3248,0.94585 -3.9634,1.0737 -0.63862,0.12789 -1.5569,0.62818 -2.0406,1.1119 -0.80598,0.806 -0.86283,1.2244 -0.68055,5.0097 0.10942,2.2716 0.14909,4.1302 0.0881,4.1302 -0.0609,0 -0.31472,-0.95058 -0.56387,-2.1124 z"
     opacity="0.6"
     id="path47" />
  <path
     d="m 228.75437,121.1517 c -0.20517,-0.25389 -1.5202,-2.9647 -2.232,-4.6014 -0.62183,-1.4296 -0.72024,-1.7397 -0.71525,-2.2542 l 0.005,-0.59654 0.29733,0.88901 c 0.37411,1.1186 1.5138,3.7528 2.3185,5.3587 0.33824,0.67504 0.61497,1.2516 0.61497,1.2812 0,0.10237 -0.1839,0.0535 -0.28922,-0.0768 z"
     opacity="0.6"
     id="path48" />
  <path
     d="m 225.12437,113.0217 c -0.033,-0.0535 -0.0126,-0.12701 0.0461,-0.16299 0.0584,-0.0361 0.10627,0.008 0.10627,0.0973 0,0.18372 -0.0627,0.21077 -0.15238,0.0657 z"
     opacity="0.6"
     id="path49" />
  <path
     d="m 248.33437,106.3917 c -0.15464,-0.20277 -0.51191,-0.54462 -0.7939,-0.75966 -0.28198,-0.21503 -0.46452,-0.42075 -0.40565,-0.45714 0.0589,-0.0363 0.075,-0.15655 0.036,-0.26697 -0.11055,-0.31222 0.8669,0.67152 1.2332,1.2413 0.38226,0.59462 0.33212,0.76923 -0.0696,0.24248 z"
     opacity="0.6"
     id="path50" />
  <path
     d="m 309.19437,91.931699 c -0.18645,-1.75 0.12075,-3.5378 0.88217,-5.1331 0.67518,-1.4146 1.4253,-2.4209 2.9258,-3.9251 3.482,-3.4903 7.8894,-5.9111 11.805,-6.4836 1.2213,-0.17858 3.527,-0.0783 4.4085,0.19153 1.499,0.45901 2.4557,1.0271 3.4119,2.026 0.86227,0.90081 1.6161,2.437 1.6036,3.2677 -0.005,0.30887 -0.0138,0.30221 -0.18919,-0.14717 -1.122,-2.8652 -4.3176,-4.6331 -8.0686,-4.4636 -4.2208,0.19076 -9.0325,2.591 -12.813,6.3916 -2.5709,2.5845 -3.6417,4.7654 -3.8035,7.7466 l -0.0739,1.3597 -0.0884,-0.83072 z"
     opacity="0.6"
     id="path51" />
  <path
     d="m 173.17437,177.8517 c -0.97544,-1.0067 -2.122,-2.3136 -2.548,-2.9043 -0.72709,-1.0081 -0.77433,-1.1683 -0.77142,-2.6148 0.008,-3.249 1.0853,-5.8796 3.3382,-8.1403 2.8326,-2.8423 6.1078,-3.9808 11.301,-3.9284 l 2.824,0.0285 -2.6148,0.16054 c -2.9853,0.18325 -4.5064,0.53786 -6.5892,1.5361 -4.5068,2.16 -7.2853,6.7332 -6.9549,11.447 0.0888,1.267 0.18579,1.5067 1.1002,2.7193 0.55154,0.73144 1.4794,1.8241 2.0619,2.4281 0.58253,0.604 0.9617,1.0982 0.84265,1.0982 -0.11899,0 -1.0146,-0.82363 -1.99,-1.8303 z"
     opacity="0.6"
     id="path52" />
  <path
     d="m 266.95437,167.5517 c 1.2e-4,-0.56425 0.53825,-1.6151 2.3469,-4.5828 l 2.3468,-3.8507 16.612,-4.7743 2.3621,1.9242 c 1.2991,1.0583 2.4334,2.0462 2.5205,2.1953 0.0873,0.14908 0.20531,0.86652 0.26257,1.5943 l 0.10414,1.3232 -0.26256,-0.88665 c -0.22609,-0.76344 -0.60305,-1.163 -2.7133,-2.8762 -1.3479,-1.0943 -2.5716,-1.9885 -2.7194,-1.9873 -0.14768,0.001 -3.7985,1.0219 -8.1129,2.2681 l -7.8443,2.2658 -2.2579,3.7458 c -1.2419,2.0602 -2.345,3.887 -2.4515,4.0596 -0.1416,0.22944 -0.19358,0.11697 -0.19347,-0.41836 z"
     opacity="0.6"
     id="path53" />
  <path
     d="m 396.37437,157.3417 -0.70191,-0.58598 0.11572,-2.0811 c 0.14195,-2.551 0.53631,-4.0863 1.6093,-6.2647 1.8327,-3.7209 5.2793,-6.6955 9.2123,-7.9508 1.5983,-0.51014 8.5619,-4.8535 13.075,-8.1553 2.0717,-1.5156 3.9543,-2.8551 4.1836,-2.9767 0.22929,-0.12163 3.0414,-0.94428 6.2492,-1.8282 l 5.8323,-1.607 0.75692,0.7067 c 0.41629,0.38869 1.8115,1.6729 3.1005,2.8538 2.0153,1.8463 2.4047,2.3104 2.7795,3.3121 0.23973,0.64072 0.40043,1.2697 0.35712,1.3977 -0.0433,0.12788 -0.20308,-0.0968 -0.35498,-0.49946 -0.25486,-0.67551 -1.423,-1.8339 -5.5381,-5.492 l -1.1189,-0.99467 -11.797,3.2804 -3.8991,2.8362 c -4.7817,3.4782 -10.34,6.9708 -12.158,7.6396 -2.7139,0.99815 -4.204,1.9424 -6.1812,3.9171 -3.1981,3.194 -4.5436,6.3161 -4.5763,10.619 -0.0101,1.3512 -0.0694,2.4572 -0.13119,2.4579 -0.0618,6.4e-4 -0.42834,-0.26245 -0.81439,-0.58475 z"
     opacity="0.6"
     id="path54" />
  <path
     d="m 460.38437,231.9317 c -0.0138,-0.7134 0.0792,-1.7959 0.20548,-2.4056 1.3175,-6.3646 10.624,-13.505 18.388,-14.108 4.7204,-0.36633 8.6741,2.2233 9.3078,6.0964 l 0.1369,0.83672 -0.5184,-1.0751 c -3.4318,-7.117 -14.527,-6.0203 -22.888,2.2622 -2.6233,2.5988 -3.8512,4.8627 -4.3443,8.0094 l -0.26338,1.6809 -0.0239,-1.2971 z"
     opacity="0.6"
     id="path55" />
  <path
     d="m 473.01437,288.2917 c 0.35766,-1.6209 0.47531,-3.9939 0.3137,-6.3277 -0.0956,-1.3806 -0.23173,-4.7693 -0.30253,-7.5305 -0.19828,-7.7314 -0.55529,-9.9405 -2.1468,-13.283 -0.80753,-1.696 -1.2103,-2.2486 -2.7487,-3.7707 -2.0424,-2.0208 -3.2632,-2.752 -5.5857,-3.346 -1.9432,-0.49698 -3.7444,-0.52719 -5.4292,-0.091 -3.8575,0.99857 -5.7645,2.9357 -8.8218,8.9611 -3.0953,6.1003 -5.5394,8.9582 -9.1409,10.689 -3.1647,1.5204 -4.2621,1.6793 -11.523,1.6684 -3.4515,-0.005 -8.111,-0.13692 -10.354,-0.2925 -7.6277,-0.52925 -14.847,-0.3047 -17.02,0.5294 -0.28186,0.10804 -0.34162,-0.0191 -0.34162,-0.728 0,-0.53293 -0.0992,-0.86974 -0.26148,-0.88705 -0.14386,-0.0156 0.20918,-0.10123 0.78444,-0.19087 1.754,-0.27319 9.5565,-0.21331 14.605,0.11206 14.449,0.93131 19.613,0.59145 23.884,-1.5719 4.2156,-2.1352 6.6086,-4.9794 10.424,-12.389 1.9186,-3.7262 2.9325,-5.2557 4.2607,-6.427 4.1397,-3.6508 10.59,-3.3241 14.914,0.75542 2.476,2.3358 3.8114,4.8361 4.6126,8.6364 0.33215,1.5756 0.46602,3.3831 0.6272,8.4683 0.11282,3.5558 0.2887,7.6505 0.39112,9.0994 0.21996,3.1111 -10e-4,5.7728 -0.62005,7.4238 -0.48431,1.2944 -0.75311,1.5489 -0.51994,0.49227 z"
     opacity="0.6"
     id="path56" />
  <path
     d="m 392.42437,297.3917 -0.894,-0.0803 -1.7674,-3.5301 c -1.2578,-2.5123 -2.0016,-3.7468 -2.5797,-4.2817 -2.8699,-2.6553 -2.9255,-6.8753 -0.13327,-10.112 1.5527,-1.7998 5.0079,-3.719 8.5143,-4.7292 2.493,-0.71825 3.9138,-0.89589 4.1524,-0.51918 0.31734,0.50114 0.22686,1.4418 -0.13864,1.4418 -0.18126,0 -1.308,0.38255 -2.5038,0.85009 -3.8671,1.512 -6.4161,3.5613 -7.7516,6.2322 -0.51338,1.0267 -0.59122,1.4253 -0.59817,3.0629 -0.008,1.611 0.0713,2.0487 0.54145,3.0331 0.3022,0.63277 0.89392,1.4799 1.315,1.8826 0.48196,0.46096 1.3443,1.875 2.3281,3.8176 l 1.5626,3.0854 -0.57657,-0.0365 c -0.3171,-0.0202 -0.97885,-0.0727 -1.4705,-0.11697 z"
     opacity="0.6"
     id="path57" />
  <path
     d="m 104.35437,304.7617 c -4.0092,-4.2223 -6.724796,-9.318 -7.736096,-14.517 -0.44627,-2.2941 -0.4983,-7.083 -0.10073,-9.2734 1.489,-8.2037 6.399596,-15.666 15.085996,-22.924 7.0442,-5.8862 13.952,-9.9304 21.229,-12.428 9.684,-3.3235 18.347,-3.2978 25.311,0.0749 2.305,1.1163 3.97,2.3544 5.9036,4.39 4.0898,4.3054 5.6602,9.8911 4.4503,15.828 -0.63275,3.105 -0.73128,3.1381 -0.73486,0.24654 -0.004,-3.4922 -0.68537,-6.0085 -2.4327,-8.9886 -0.91722,-1.5643 -4.5416,-5.1976 -6.1525,-6.1677 -6.4112,-3.8607 -14.507,-4.5119 -23.625,-1.9004 -8.0832,2.315 -15.742,6.6518 -23.428,13.266 -7.6601,6.592 -12.257996,13.813 -13.508996,21.217 -0.40898,2.4202 -0.31063,6.5747 0.21539,9.0994 0.84952,4.0772 2.876896,8.3625 5.408096,11.431 1.2892,1.5629 1.3597,1.9542 0.11622,0.64462 z"
     opacity="0.6"
     id="path58" />
  <path
     d="m 159.81437,468.4417 c -5.4188,-0.70311 -10.365,-2.4698 -19.245,-6.8738 -7.4599,-3.6999 -11.194,-6.2062 -15.559,-10.444 -3.8535,-3.7408 -6.7371,-7.3678 -9.899,-12.451 -9.654,-15.519 -14.796,-31.045 -15.342996,-46.334 -0.066,-1.8408 -0.0431,-5.4671 0.0506,-8.0585 l 0.17062,-4.7116 0.681946,-1.3852 c 1.2221,-2.4824 3.858,-4.5049 6.9254,-5.3137 1.3114,-0.34581 4.5864,-0.41365 5.5988,-0.11609 0.73899,0.21727 4.5613,2.7233 4.3999,2.8847 -0.0573,0.0573 -0.32415,-0.021 -0.59286,-0.17412 -0.79298,-0.4519 -5.4329,-0.3754 -6.8686,0.11332 -3.105,1.0568 -5.5084,3.0258 -6.7351,5.5176 l -0.68805,1.3976 -0.17167,4.4 c -0.3723,9.5404 0.24728,16.116 2.2845,24.247 3.6946,14.746 12.296,30.801 21.307,39.769 4.5256,4.5042 8.4285,7.1713 15.903,10.868 8.8592,4.3809 14.048,6.1137 19.705,6.5805 l 2.0496,0.16907 -1.6735,-10e-4 c -0.92038,-0.001 -1.9558,-0.0388 -2.301,-0.0836 v 10e-6 z"
     opacity="0.6"
     id="path59" />
  <path
     d="m 130.44437,412.8217 c -1.0397,-1.7621 -1.0905,-2.3986 -1.0259,-12.844 0.033,-5.3498 -0.0101,-10.15 -0.0978,-10.668 l -0.15811,-0.94133 0.42535,0.77738 c 1.041,1.9026 1.1261,2.9291 1.0712,12.924 -0.0342,6.2249 0.0256,9.6469 0.18018,10.33 0.12719,0.56176 0.19273,1.06 0.1456,1.1071 -0.0472,0.0471 -0.29036,-0.26097 -0.5404,-0.68477 z"
     opacity="0.6"
     id="path60" />
  <path
     d="m 171.63437,375.5117 c 0,-0.52642 0.56965,-1.666 2.2154,-4.4319 1.2185,-2.0478 2.3245,-3.8079 2.4579,-3.9113 0.13326,-0.10338 3.9291,-1.2496 8.4351,-2.5472 l 8.1927,-2.3592 2.371,1.934 c 1.304,1.0637 2.4345,2.0434 2.5122,2.1771 0.0777,0.1338 0.19529,0.85244 0.26136,1.5971 0.11886,1.3407 0.1176,1.3453 -0.14127,0.46726 -0.22523,-0.76415 -0.59986,-1.1615 -2.7121,-2.8762 -1.3479,-1.0943 -2.6187,-1.9837 -2.8239,-1.9766 -0.20525,0.008 -3.856,1.019 -8.1129,2.2487 l -7.7397,2.2357 -2.4579,4.0756 c -2.1309,3.5334 -2.4579,3.9814 -2.4579,3.367 z"
     opacity="0.6"
     id="path61" />
  <path
     d="m 305.39437,449.1517 c -6.2853,-3.4423 -11.709,-8.0622 -15.838,-13.491 -1.4789,-1.9445 -1.5749,-2.1361 -1.6735,-3.3413 -0.5989,-7.3214 2.8019,-14.321 8.8902,-18.297 3.9561,-2.584 9.3594,-4.0002 15.27,-4.0023 4.9442,-0.001 9.0165,0.65387 19.977,3.2163 11.588,2.7091 11.524,2.7024 25.938,2.726 11.341,0.0186 11.922,0.0384 14.373,0.49288 7.1047,1.3169 12.011,4.1341 14.804,8.5007 0.79441,1.2419 1.7891,3.6353 1.7703,4.2597 -0.005,0.19871 -0.22357,-0.21072 -0.48351,-0.90987 -2.0586,-5.537 -8.0112,-9.7671 -15.558,-11.056 -3.99,-0.68149 -6.3075,-0.7796 -15.115,-0.63989 -11.716,0.18583 -12.911,0.0518 -25.206,-2.8262 -10.191,-2.3854 -13.343,-2.8283 -18.902,-2.655 -4.5383,0.14143 -7.1164,0.64126 -10.413,2.0185 -5.7581,2.406 -10.125,7.1862 -11.793,12.909 -0.6241,2.1415 -0.91141,4.7957 -0.73973,6.8337 l 0.15568,1.8483 1.5866,2.1261 c 0.87264,1.1694 2.8638,3.4001 4.4248,4.957 3.3992,3.3904 6.3668,5.6529 10.611,8.0895 0.44202,0.25376 0.66246,0.46496 0.48988,0.4693 -0.17253,0.005 -1.3291,-0.54815 -2.5701,-1.2278 z"
     opacity="0.6"
     id="path62" />
  <path
     d="m 350.44437,381.3017 c -2.1382,-1.5017 -1.9314,-1.0506 -1.8117,-3.9525 0.10992,-2.6686 0.40258,-4.0677 1.3408,-6.4127 2.028,-5.0691 6.4334,-9.1375 11.789,-10.887 1.9742,-0.64496 10.054,-5.7147 15.874,-9.9605 l 4.8746,-3.5561 14.492,-4.0144 3.0331,2.7739 c 1.6682,1.5257 3.3711,3.0878 3.7842,3.4715 0.83011,0.77089 1.6046,2.5687 1.7775,4.126 l 0.10703,0.96435 -0.58575,-1.3916 c -0.55002,-1.3067 -0.81277,-1.597 -4.307,-4.7589 -2.0467,-1.852 -3.8352,-3.3649 -3.9744,-3.362 -0.13917,0.004 -3.3649,0.87775 -7.1681,1.944 l -6.9149,1.9387 -4.656,3.395 c -5.3004,3.8649 -13.01,8.727 -14.565,9.185 -1.3502,0.39786 -3.5744,1.5123 -5.084,2.5475 -4.9551,3.3976 -7.9687,9.095 -8.0235,15.169 l -0.0206,2.2842 0.70703,0.58643 c 0.96384,0.79944 0.51055,0.73872 -0.66875,-0.0895 z"
     opacity="0.6"
     id="path63" />
  <path
     d="m 487.33437,387.3317 c -7.0191,-3.4346 -12.005,-10.347 -13.909,-19.285 -0.85308,-4.0046 -0.78286,-10.417 0.16228,-14.818 0.8873,-4.1317 3.3909,-10.241 4.9471,-12.072 0.41058,-0.48303 6.9896,-4.7979 17.124,-11.231 l 3.6993,-2.3481 2.0532,0.22891 c 9.4294,1.0513 18.785,5.0412 25.66,10.943 2.5265,2.1689 4.9379,4.8994 4.9356,5.5886 -10e-4,0.47049 -0.12176,0.39476 -1.1982,-0.7545 -2.2046,-2.354 -6.2023,-5.2946 -9.8774,-7.2656 -4.9544,-2.6571 -11.154,-4.5532 -16.957,-5.1862 l -2.2101,-0.24109 -3.4377,2.1891 c -1.8908,1.204 -6.3558,4.0842 -9.9224,6.4006 l -6.4846,4.2115 -0.99649,1.751 c -1.9957,3.5066 -3.5645,8.0977 -4.2434,12.418 -0.48007,3.0551 -0.32328,9.5552 0.29442,12.207 1.0155,4.3592 2.6768,8.1351 4.8779,11.087 1.607,2.1549 4.3381,4.7555 6.343,6.04 2.06,1.3198 1.6796,1.3808 -0.86034,0.13796 z"
     opacity="0.6"
     id="path64" />
  <path
     d="m 473.67437,458.1417 c -2.3236,-4.8199 -2.5259,-5.5886 -2.5259,-9.5978 0,-4.546 0.11484,-4.7403 3.0331,-5.1318 0.57524,-0.0772 2.5049,-0.61173 4.2882,-1.1879 2.9301,-0.94671 3.4337,-1.0488 5.2295,-1.06 2.3538,-0.0139 3.8908,0.34495 6.6555,1.5575 1.4157,0.62086 2.315,1.1839 3.2001,2.0032 1.5322,1.4185 1.6147,1.8304 0.12352,0.61569 -1.4518,-1.1825 -4.7522,-2.6178 -6.9123,-3.006 -2.3623,-0.42459 -4.0698,-0.22394 -7.4596,0.87653 -1.5532,0.50425 -3.4725,1.0189 -4.2653,1.1438 -2.6443,0.41642 -2.9283,0.85652 -3.0246,4.6873 -0.0421,1.6704 0.0296,3.4301 0.16784,4.1332 0.24823,1.2616 1.4518,4.3339 2.5505,6.5104 0.34346,0.68041 0.5722,1.2894 0.5083,1.3533 -0.064,0.064 -0.76996,-1.2399 -1.569,-2.8974 z"
     opacity="0.6"
     id="path65" />
  <path
     d="m 334.64437,540.3717 c -3.9982,-2.6914 -9.0325,-7.2871 -11.389,-10.396 -6.4449,-8.5052 -6.7092,-18.403 -0.64931,-24.315 3.4652,-3.3804 9.0902,-4.9628 15.563,-4.3782 12.964,1.1709 23.686,7.3082 28.729,16.445 0.48772,0.88357 0.84815,1.6451 0.80094,1.6923 -0.0472,0.0472 -0.47898,-0.51213 -0.95949,-1.243 -1.7379,-2.6434 -4.8723,-5.6225 -8.1189,-7.7169 -7.3681,-4.753 -18.716,-6.9804 -25.603,-5.0255 -4.0765,1.1571 -6.9575,3.2276 -8.7687,6.3018 -3.5388,6.0066 -2.4864,13.743 2.81,20.658 1.4403,1.8805 5.7802,6.1172 7.9016,7.714 0.88726,0.66781 1.6132,1.2498 1.6132,1.2934 0,0.2083 -0.44035,-0.0266 -1.9299,-1.0292 z"
     opacity="0.6"
     id="path66" />
  <path
     d="m 223.26437,517.2017 c 0,-0.2861 3.5236,-6.1852 3.8421,-6.4322 0.22144,-0.17185 12.625,-3.8012 12.991,-3.8012 0.092,0 1.049,0.70899 2.1263,1.5755 1.5127,1.2167 1.9588,1.6925 1.9588,2.0892 0,0.46614 -0.19473,0.3555 -2.1061,-1.1968 l -2.1061,-1.7105 -6.1042,1.7449 c -3.3573,0.9597 -6.2925,1.8612 -6.5226,2.0034 -0.23008,0.14213 -1.1714,1.5375 -2.0918,3.1008 -1.5482,2.6296 -1.9872,3.21 -1.9872,2.6269 z"
     opacity="0.6"
     id="path67" />
  <path
     d="m 227.02437,230.5817 c 1.9665,-1.9532 4.2514,-3.5852 6.7368,-4.812 3.2693,-1.6137 6.9902,-2.5248 10.586,-1.9248 4.2342,0.70639 7.9226,3.4558 10.551,6.8499 2.6283,3.394 4.3174,7.4108 5.8098,11.436 0.64353,1.7355 1.2617,3.5074 1.4052,5.3528 0.0718,0.9227 0.0224,1.859 -0.19989,2.7574 -0.22228,0.8984 -0.62073,1.7587 -1.2053,2.4762 -0.992,1.2176 -2.468,1.9634 -3.9891,2.3544 -1.5211,0.39101 -3.1037,0.45839 -4.6725,0.53282 -4.5259,0.21474 -9.181,0.4876 -13.474,-0.96243 -3.9697,-1.3409 -7.4033,-4.1461 -9.624,-7.6992 -3.0072,-4.8113 -3.7332,-10.983 -1.9248,-16.361"
     fill="none"
     stroke="#000000"
     stroke-width="0.86876"
     id="path68" />
  <path
     d="m 231.62437,233.9017 c 1.7143,-1.7027 3.706,-3.1254 5.8726,-4.1947 2.85,-1.4067 6.0936,-2.2009 9.2284,-1.6779 3.691,0.61578 6.9063,3.0126 9.1975,5.9712 2.2912,2.9586 3.7636,6.4602 5.0646,9.9688 0.56098,1.5129 1.0998,3.0575 1.2249,4.6662 0.0626,0.80434 0.0195,1.6205 -0.17425,2.4036 -0.19377,0.78315 -0.54111,1.5331 -1.0507,2.1586 -0.86475,1.0614 -2.1514,1.7115 -3.4774,2.0524 -1.326,0.34085 -2.7056,0.39958 -4.0731,0.46447 -3.9453,0.18719 -8.0032,0.42508 -11.745,-0.83895 -3.4605,-1.1689 -6.4536,-3.6142 -8.3895,-6.7116 -2.6214,-4.1941 -3.2543,-9.5741 -1.6779,-14.262"
     fill="none"
     stroke="#000000"
     stroke-width="0.86876"
     id="path69" />
  <path
     d="m 232.21437,249.8417 c -3.4825,-3.5837 -5.1713,-7.9106 -5.1781,-13.267 -0.005,-4.0132 0.1701,-4.7489 1.5099,-6.3412 2.059,-2.447 8.2165,-5.3802 12.146,-5.7857 3.5317,-0.36449 6.2814,0.49311 10.153,3.1666 3.0018,2.073 2.8129,2.848 -0.29583,1.2139 -5.1028,-2.6822 -13.055,-1.1387 -17.972,3.4884 -3.5465,3.337 -3.1543,10.512 0.92565,16.933 2.1473,3.3793 1.6456,3.6099 -1.2874,0.59165 z"
     opacity="0.6"
     id="path70" />
  <path
     d="m 345.59437,206.8117 c -1.8776,-0.9929 -3.4459,-2.5612 -4.4388,-4.4388 -0.96541,-1.8256 -1.3839,-3.9361 -1.1881,-5.992 0.1958,-2.0559 1.0051,-4.0494 2.2978,-5.66 1.454,-1.1264 3.1832,-1.8949 4.9937,-2.2194 1.0451,-0.18732 2.1215,-0.228 3.1697,-0.0584 1.0482,0.16958 2.0679,0.55343 2.9337,1.1681 1.0666,0.75733 1.869,1.8399 2.4683,3.0028 0.59924,1.1628 1.009,2.4122 1.4157,3.6555 0.44925,1.3733 0.90127,2.7628 1.0124,4.2034 0.11109,1.4406 -0.15055,2.9597 -1.0124,4.1194 -0.67887,0.91352 -1.7129,1.5558 -2.8327,1.7593 -1.1198,0.2035 -2.3137,-0.0336 -3.2707,-0.64966 l -5.5485,1.1097"
     fill="none"
     stroke="#000000"
     stroke-width="0.81472px"
     id="path71" />
  <path
     d="m 347.47437,206.8717 c -1.6076,-0.8501 -2.9504,-2.1928 -3.8005,-3.8004 -0.82657,-1.5631 -1.1849,-3.37 -1.0172,-5.1302 0.16764,-1.7602 0.86057,-3.467 1.9673,-4.846 1.2449,-0.9644 2.7254,-1.6224 4.2755,-1.9002 0.89484,-0.16038 1.8164,-0.19521 2.7138,-0.05 0.89742,0.14519 1.7705,0.47383 2.5118,1.0001 0.91325,0.64841 1.6002,1.5753 2.1133,2.5709 0.51306,0.99561 0.86385,2.0653 1.2121,3.1298 0.38464,1.1758 0.77165,2.3655 0.86677,3.5989 0.0951,1.2334 -0.1289,2.534 -0.86677,3.527 -0.58123,0.78214 -1.4666,1.332 -2.4253,1.5063 -0.95874,0.17432 -1.981,-0.0287 -2.8003,-0.55621 l -4.7506,0.95012"
     fill="none"
     stroke="#000000"
     stroke-width="0.69755px"
     id="path72" />
  <path
     d="m 343.55437,204.6417 c -1.9977,-1.9738 -2.7724,-3.76 -2.9187,-6.73 -0.21893,-4.4437 1.4663,-7.27 5.0433,-8.4581 2.9578,-0.98242 6.0164,-0.53281 8.0423,1.1822 1.0447,0.8844 0.85063,1.2814 -0.33072,0.67659 -2.1022,-1.0763 -5.2677,-0.75152 -7.94,0.81454 -3.6562,2.1427 -4.2759,8.8966 -1.1512,12.547 1.368,1.5982 0.884,1.5772 -0.74502,-0.0324 z"
     opacity="0.6"
     id="path73" />
  <g
     transform="matrix(0.25581,0,0,0.25581,5.534374,64.111699)"
     filter="url(#f)"
     id="g73" />
</svg>
