<?xml version="1.0" encoding="UTF-8" standalone="no"?>
<svg
   width="395.65497pt"
   height="311.01489pt"
   version="1.1"
   viewBox="0 0 395.65497 311.01489"
   id="svg5"
   sodipodi:docname="Planets_02_strip.svg"
   inkscape:version="1.4 (e7c3feb1, 2024-10-09)"
   xmlns:inkscape="http://www.inkscape.org/namespaces/inkscape"
   xmlns:sodipodi="http://sodipodi.sourceforge.net/DTD/sodipodi-0.dtd"
   xmlns="http://www.w3.org/2000/svg"
   xmlns:svg="http://www.w3.org/2000/svg">
  <defs
     id="defs5" />
  <sodipodi:namedview
     id="namedview5"
     pagecolor="#ffffff"
     bordercolor="#666666"
     borderopacity="1.0"
     inkscape:showpageshadow="2"
     inkscape:pageopacity="0.0"
     inkscape:pagecheckerboard="0"
     inkscape:deskcolor="#d1d1d1"
     inkscape:document-units="pt"
     inkscape:zoom="0.70260292"
     inkscape:cx="384.28534"
     inkscape:cy="298.17696"
     inkscape:window-width="1792"
     inkscape:window-height="932"
     inkscape:window-x="0"
     inkscape:window-y="25"
     inkscape:window-maximized="0"
     inkscape:current-layer="svg5" />
  <path
     d="m 212.75945,0.00630433 c -17.99,0.12251 -35.97,2.28939997 -53.38,6.34219997 C 110.29945,22.828504 63.869451,57.609504 45.379451,107.3885 c -12.38,33.15 -5.87,69.75 4.45,102.25 -24.2,19.36 -45.0510003,46.4 -49.44100026,77.85 -3.03000004,14.88 12.25100026,24.91 25.48100026,23.37 30.19,-1.98 57.71,-15.811 84.779999,-28.111 7.99,5.74 16.5,11.261 25.57,15.081 25.73,14.14 56.699,12.95 85.089,11.48 30.23,-2.25 58.831,-13.641 82.591,-32.391 50.9,-40.67 64.9,-111.75 54.47,-173.27 14.53,-22.009996 32.54,-44.009996 36.7,-70.799996 3.5,-13.61 -9.3313,-23.2089997 -21.481,-23.4889997 -21.25,-0.7197 -42.39,4.4199997 -61.56,13.4299997 -30.55,-15.7959997 -64.93,-23.01699967 -99.27,-22.78299967 z m 128.26,35.39099967 c 15.47,-0.244 10.56,26.811 5.35,33.033 -0.98,-12.17 -9.96,-20.681 -14.24,-31.391 2.66,-0.73 5.3906,-1.2594 8.1406,-1.6094 0.25592,-0.01781 0.506,-0.02895 0.75152,-0.03282 z m -256.219999,26.059 h 0.0016 c -1.0049,0.99801 -1.997,2.0115 -2.9719,3.0406 0.97505,-1.0294 1.9652,-2.0424 2.9703,-3.0406 z m -22.94,175.889996 c 4.55,2.53 7.5703,8.6203 10.87,12.87 -7.17,-0.12 -12.68,-5.0203 -10.87,-12.87 z"
     fill="#cb9936"
     id="path1" />
  <path
     d="m 159.37945,6.3491143 c 50.66,-11.79 106.1,-7.63 152.65,16.4399997 19.17,-9.01 40.31,-14.1499997 61.56,-13.4299997 12.15,0.28 24.98,9.8799997 21.48,23.4899997 -4.16,26.79 -22.17,48.79 -36.7,70.799996 10.43,61.52 -3.57,132.6 -54.47,173.27 -23.76,18.75 -52.36,30.14 -82.59,32.39 -28.39,1.47 -59.36,2.66 -85.09,-11.48 -7.3,-5.27 -15.62,-20.66 -25.57,-15.08 -27.069999,12.3 -54.589999,26.13 -84.779999,28.11 -13.23,1.54 -28.5100003,-8.49 -25.48000026,-23.37 4.38999996,-31.45 25.24000026,-58.49 49.44000026,-77.85 -10.32,-32.5 -16.83,-69.1 -4.45,-102.25 C 63.869451,57.609114 110.29945,22.829114 159.37945,6.3491143 M 97.379451,50.379114 c -19.97,15.52 -35.96,36.85 -44.49,60.809996 -0.26,1.04 -0.46,2.09 -0.6,3.15 -1.28,8.79 11.04,9.98 17.01,8.1 28.19,-6.19 51.929999,-24.029996 75.719999,-39.399996 32.48,-20.98 57.28,-51.74 89.36,-73.1099997 -8.04,-2.42 -16.76,-0.44 -25,-0.91 -41.64,-2.82 -80.33,16.1199997 -111.999999,41.3599997 m 105.159999,-7.83 c -35.83,35.1 -77.92,65.419996 -125.489999,82.799996 -9.32,2.19 -19.48,4.52 -28.11,-1.15 -3.71,19.36 -2.58,39.66 2.13,58.76 32.71,-17.47 70.229999,-24.54 102.119999,-43.72 29.38,-15.34 55.28,-38.04 73.79,-65.219996 12.88,-16.52 33.4,-40.09 20.84,-61.81 -18.37,4.47 -31.06,19.07 -45.28,30.34 m 52.38,-30.49 c 3.48,12.12 3.43,25.64 -3.26,36.65 -33.45,63.539996 -99.03,103.469996 -165.429999,125.619996 -10.64,2.32 -20.41,7.67 -30.36,11.93 -4.77,0.38 -3.25,10.79 2.7,8.43 10.7,0.81 24.55,-0.61 33.16,-4.76 12.909999,-1.99 24.469999,-8.64 36.269999,-13.91 43.28,-23.35 85.31,-50.89 118.27,-87.739996 21.68,-16.03 35.68,-42.5 34.53,-69.66 -8.41,-2.91 -17.26,-4.4 -25.88,-6.56 m 65.23,16.04 c 1.14,3.98 6.09,4.19 9.3,2.43 9.92,-3.88 24.43,-4.4 29.05,7.28 2.63,19.15 -3.31,39.2 -15.44,54.25 -36.93,46.019996 -87.06,78.239996 -133.75,113.199996 -16.849,11.177 -22.553,17.466 -51.07,27.03 -20.92,6 -38.97,19.94 -61.139999,21.76 -12.92,3 -30.5,7.1 -40.73,-3.43 -9.31,-9.5 4.31,-24.09 -3.21,-32.26 -18.64,14.19 -32.58,35.1 -42.42,56.33 -3.5500003,8.09 -5.5200003,19.7 2.7,25.63 20.81,4.95 41.46,-4.07 60.74,-11.13 69.259999,-28.54 131.929999,-70.55 193.829999,-112.16 23.56,-17.53 47.79,-34.62 67.93,-56.1 17.41,-26.459996 39.08,-50.979996 49.96,-81.129996 4.21,-9.35 -0.95,-21.14 -11.23,-22.61 -18.69,-1.05 -37.43,3.51 -54.52,10.91 m -33.94,-6.83 c -1.27,19.23 -5.98,39.05 -19.18,53.77 -29.35,36.479996 -67.99,64.099996 -106.94,89.549996 -14.43,7.66 -28.47,16.56 -43.8,22.54 -19.269999,7.2 -39.319999,15.43 -60.349999,12.06 5.26,19.57 15.54,40.24 35.09,48.57 46.829999,-16.72 92.829999,-37.84 134.079999,-65.69 28.72,-17.51 55.64,-38.71 79.67,-62.29 9.16,-7.19 17.41,-15.89 24.82,-24.879996 11.45,-7.09 11.97,-20.84 6.42,-31.86 -3.16,-7.94 -8.33,-19.65 -17.59,-21.01 -0.31,-0.12 -0.95,-0.37 -1.27,-0.49 -4.46,-12.24 -19.72,-16.87 -30.95,-20.27 m 54.06,14.16 c -2.75,0.35 -5.48,0.88 -8.14,1.61 4.28,10.71 13.26,19.22 14.24,31.39 5.29,-6.32 10.28,-34.14 -6.1,-33 m 3.79,89.689996 c -34.39,34.48 -75.86,64.09 -117.81,90.06 -31.76,20.16 -63.75,40.14 -97.18,57.49 -1.74,11.98 20.51,28.81 31.89,17.51 62.49,-20 117.55,-58.37 162.04,-106.16 15.74,-16.7 33.93,-36.84 29.23,-61.88 2.46,-10.17 -7.95,-1.32 -8.17,2.98 m 7.48,30.07 c -7,11.73 -15.12,22.98 -24.61,32.77 -40.93,41.62 -87.92,79.92 -143.61,99.69 -8.85,2.04 -16.98,6.46 -25.45,9.66 22.61,2.2 47.81,-9.15 66.58,-18.2 39.07,-13.6 70.93,-41.25 101.95,-67.7 10.33,-12.92 22.92,-27.29 25.18,-44 0.89,-3.89 1.47,-8.76 -0.04,-12.22 m -78.45,104.02 c -28.34,20.54 -62.92,34.94 -95.91,41.75 40.07,3.99 84.17,-1.89 116.92,-26.9 26.25,-17.25 44.65,-47.13 51.97,-77.69 -17.36,26.05 -47.56,43.57 -72.98,62.84 m -211.229999,-21.86 c -1.81,7.85 3.7,12.75 10.87,12.87 -3.3,-4.25 -6.32,-10.34 -10.87,-12.87 z"
     fill="#1c1c1c"
     id="path2" />
  <path
     d="m 225.10945,8.7016143 c -5.24,-0.0521 -10.58,0.6105 -15.73,0.3172 -29.46,32.0499997 -65.75,57.2289997 -102.23,81.1289997 -17.459999,9.801 -37.180999,14.700996 -54.860999,24.190996 -1.28,8.79 11.041,9.98 17.011,8.1 28.19,-6.19 51.929999,-24.029996 75.719999,-39.399996 32.48,-20.98 57.28,-51.739 89.36,-73.1089997 -3.01,-0.9079 -6.13,-1.1973 -9.27,-1.2285 z m 29.811,3.3577997 c 3.48,12.12 3.4291,25.64 -3.2609,36.65 -33.45,63.539996 -99.03,103.469996 -165.429999,125.619996 -7.24,7.97 -24.97,7.8988 -28.43,16.169 11.2,2.56 22.63,-0.25876 33.93,-0.56876 12.909999,-1.99 24.469999,-8.6409 36.269999,-13.911 43.28,-23.35 85.31,-50.889 118.27,-87.738996 21.68,-16.03 35.68,-42.501 34.53,-69.661 -8.41,-2.91 -17.26,-4.3994 -25.88,-6.5594 z m 31.289,9.2094 c -1.27,19.231 -5.98,39.051 -19.18,53.771 -29.35,36.479996 -67.991,64.099996 -106.94,89.549996 54,-18.32 97.5,-61.229 122.85,-111.659996 3.78,-7.13 6.4112,-18.791 16.281,-18.661 7.51,-1.76 11.619,5.6703 17.939,7.2703 -4.46,-12.24 -19.72,-16.87 -30.95,-20.27 z m 32.22,20.762 c 6.67,6.28 12.71,13.229 17.59,21.009 -3.16,-7.94 -8.33,-19.649 -17.59,-21.009 z m -91.45,31.989 c -22.75,19.6 -47.09,37.370996 -70.07,56.740996 6.83,1.52 -1.6303,5.9997 -3.7203,8.4797 29.38,-15.34 55.281,-38.04 73.791,-65.219996 z m 124.16,43.416996 c -2.404,0.0795 -6.9368,4.861 -7.0812,7.6828 -2.5,9.54 -10.319,16.371 -15.589,24.361 -21.53,29.3 -44.441,58.34 -74.531,79.33 -5.09,1.53 -2.69,6.7897 -4.65,10.23 -25.95,22.43 -59.139,33.12 -90.269,46.1 -3.97,1.3 -1.2009,5.1406 1.9391,5.0406 62.49,-20 117.55,-58.371 162.04,-106.16 15.74,-16.7 33.93,-36.84 29.23,-61.88 0.8456,-3.4959 0.1702,-4.7448 -1.0891,-4.7031 z m 0.3985,37.753 c -7,11.73 -15.119,22.98 -24.609,32.77 -40.93,41.62 -87.919,79.919 -143.61,99.689 7.14,0.12 13.909,-2.6088 20.669,-4.5188 8.36,-5.29 18.431,-6.6112 27.291,-10.831 30.01,-10.32 54.431,-31.589 78.741,-51.259 18.43,-14.3 32.539,-33.961 40.309,-55.941 0.31,0.58 0.94,1.7309 1.25,2.3109 0.89,-3.89 1.4694,-8.7603 -0.041,-12.22 z"
     fill="#ddbf69"
     id="path3" />
  <path
     d="m 320.14945,28.099114 c 17.09,-7.4 35.83,-11.96 54.52,-10.91 10.28,1.47 15.44,13.26 11.23,22.61 -10.88,30.15 -32.55,54.67 -49.96,81.129996 -20.14,21.48 -44.37,38.57 -67.93,56.1 -61.9,41.61 -124.57,83.62 -193.829999,112.16 -19.28,7.06 -39.93,16.08 -60.74,11.13 -8.2200003,-5.93 -6.2500003,-17.54 -2.7,-25.63 9.84,-21.23 23.78,-42.14 42.42,-56.33 7.52,8.17 -6.1,22.76 3.21,32.26 10.23,10.53 27.81,6.43 40.73,3.43 22.169999,-1.82 40.219999,-15.76 61.139999,-21.76 18.07,-6.74 35.42,-15.79 51.07,-27.03 46.69,-34.96 96.82,-67.18 133.75,-113.199996 12.13,-15.05 18.07,-35.1 15.44,-54.25 -4.62,-11.68 -19.13,-11.16 -29.05,-7.28 -3.21,1.76 -8.16,1.55 -9.3,-2.43 z"
     fill="#98fe9b"
     id="path4"
     style="fill:#cb9936;fill-opacity:1" />
  <path
     d="m 97.379451,50.380114 c -2.8761,1.5834 -4.9303,3.3599 -6.3797,5.2812 2.0773,-1.8253 4.2033,-3.5898 6.3797,-5.2812 z m -6.3797,5.2812 c -16.984,14.923 -30.51,34.179 -38.111,55.527996 11.71,-9.39 30.891,-7.7 39.411,-21.049996 -0.3582,-11.645 -8.5284,-24.896 -1.3,-34.478 z m 238.599999,39.238 c -8.86,7.659996 -17.53,15.670996 -24.82,24.880996 9.16,-7.19 17.41,-15.891 24.82,-24.880996 z M 48.939751,124.19931 c -3.71,19.36 -2.5788,39.661 2.1312,58.761 32.71,-17.47 70.228999,-24.54 102.119999,-43.72 2.09,-2.48 10.55,-6.9597 3.7203,-8.4797 -25.36,4.54 -62.198999,19.979 -79.858999,-5.4109 -9.32,2.19 -19.481,4.52 -28.111,-1.15 z m 176.169999,57.87 c -33.56,7.57 -66.39,22.7 -101.22,21.58 -7.99,0.82 -16.66,-12.349 -7.6,-16.519 -19.269999,7.2 -39.319999,15.429 -60.349999,12.059 5.26,19.57 15.541,40.24 35.091,48.57 46.829999,-16.72 92.829999,-37.841 134.079999,-65.691 z m -169.239999,4.1906 c -4.77,0.38 -3.25,10.79 2.7,8.4297 10.7,0.81 24.549,-0.60938 33.159,-4.7594 -11.3,0.31 -22.73,3.1288 -33.93,0.56876 -0.77,-1.35 -1.3597,-2.7891 -1.9297,-4.2391 z m 170.379999,28.92 c -31.76,20.16 -63.75,40.139 -97.18,57.489 -1.74,11.98 20.509,28.811 31.889,17.511 -3.14,0.1 -5.9091,-3.7406 -1.9391,-5.0406 31.13,-12.98 64.319,-23.67 90.269,-46.1 2.15,-13.38 -21.289,-14.939 -23.039,-23.859 z m 46.839,44.03 c -28.34,20.54 -62.919,34.94 -95.909,41.75 40.07,3.99 84.17,-1.89 116.92,-26.9 -8.75,-1.9 -15.091,-8.6 -21.011,-14.85 z m -48.639,19.9 c -6.77,1.59 -13.541,3.2303 -20.461,4.0203 -6.76,1.91 -13.529,4.6388 -20.669,4.5188 -8.85,2.04 -16.98,6.4609 -25.45,9.6609 22.61,2.2 47.81,-9.15 66.58,-18.2 z"
     fill="#b18725"
     id="path5" />
</svg>
