<?xml version="1.0" encoding="UTF-8" standalone="no"?>
<svg
   width="196.55251mm"
   height="182.9408mm"
   version="1.1"
   id="svg65"
   sodipodi:docname="Planets_03_strip.svg"
   inkscape:version="1.4 (e7c3feb1, 2024-10-09)"
   xmlns:inkscape="http://www.inkscape.org/namespaces/inkscape"
   xmlns:sodipodi="http://sodipodi.sourceforge.net/DTD/sodipodi-0.dtd"
   xmlns:xlink="http://www.w3.org/1999/xlink"
   xmlns="http://www.w3.org/2000/svg"
   xmlns:svg="http://www.w3.org/2000/svg"
   xmlns:rdf="http://www.w3.org/1999/02/22-rdf-syntax-ns#"
   xmlns:cc="http://creativecommons.org/ns#"
   xmlns:dc="http://purl.org/dc/elements/1.1/">
  <sodipodi:namedview
     id="namedview65"
     pagecolor="#ffffff"
     bordercolor="#666666"
     borderopacity="1.0"
     inkscape:showpageshadow="2"
     inkscape:pageopacity="0.0"
     inkscape:pagecheckerboard="0"
     inkscape:deskcolor="#d1d1d1"
     inkscape:document-units="mm"
     inkscape:zoom="0.33997818"
     inkscape:cx="297.07789"
     inkscape:cy="348.55178"
     inkscape:window-width="1792"
     inkscape:window-height="932"
     inkscape:window-x="0"
     inkscape:window-y="25"
     inkscape:window-maximized="0"
     inkscape:current-layer="svg65" />
  <defs
     id="defs16">
    <linearGradient
       id="b">
      <stop
         stop-color="#999"
         offset="0"
         id="stop1" />
      <stop
         stop-color="#999"
         stop-opacity=".64706"
         offset=".0625"
         id="stop2" />
      <stop
         stop-color="#999"
         stop-opacity=".039216"
         offset=".125"
         id="stop3" />
      <stop
         stop-color="#999"
         stop-opacity=".2549"
         offset=".25"
         id="stop4" />
      <stop
         stop-color="#999"
         stop-opacity=".098039"
         offset=".5"
         id="stop5" />
      <stop
         stop-color="#a09292"
         stop-opacity="0"
         offset="1"
         id="stop6" />
    </linearGradient>
    <linearGradient
       id="a"
       x1="5.2143002"
       x2="731.42999"
       y1="483.79001"
       y2="483.79001"
       gradientUnits="userSpaceOnUse"
       xlink:href="#b" />
    <filter
       id="m"
       x="-0.035738796"
       y="-0.18681875"
       width="1.0714776"
       height="1.3736375">
      <feGaussianBlur
         stdDeviation="9.7857141"
         id="feGaussianBlur6" />
    </filter>
    <filter
       id="l"
       x="-0.03198359"
       y="-0.48375091"
       width="1.0639672"
       height="1.9675018">
      <feGaussianBlur
         stdDeviation="4.6071429"
         id="feGaussianBlur7" />
    </filter>
    <filter
       id="k"
       x="-0.038571827"
       y="-0.13499857"
       width="1.0771437"
       height="1.2699971">
      <feGaussianBlur
         stdDeviation="4.1785714"
         id="feGaussianBlur8" />
    </filter>
    <filter
       id="j"
       x="-0.032726733"
       y="-0.35999968"
       width="1.0654535"
       height="1.7199994">
      <feGaussianBlur
         stdDeviation="4.7142859"
         id="feGaussianBlur9" />
    </filter>
    <filter
       id="i"
       x="-0.03257143"
       y="-0.37999685"
       width="1.0651429"
       height="1.7599937">
      <feGaussianBlur
         stdDeviation="8.1428571"
         id="feGaussianBlur10" />
    </filter>
    <filter
       id="h"
       x="-0.033402399"
       y="-0.29455074"
       width="1.0668048"
       height="1.5891015">
      <feGaussianBlur
         stdDeviation="3.857142"
         id="feGaussianBlur11" />
    </filter>
    <filter
       id="g"
       x="-0.033750398"
       y="-0.26999639"
       width="1.0675008"
       height="1.5399928">
      <feGaussianBlur
         stdDeviation="5.1428575"
         id="feGaussianBlur12" />
    </filter>
    <filter
       id="f"
       x="-0.031939517"
       y="-0.49399817"
       width="1.063879"
       height="1.9879963">
      <feGaussianBlur
         stdDeviation="8.8214285"
         id="feGaussianBlur13" />
    </filter>
    <filter
       id="e"
       x="-0.062570961"
       y="-0.2061148"
       width="1.1251419"
       height="1.4122296">
      <feGaussianBlur
         stdDeviation="4.1714286"
         id="feGaussianBlur14" />
    </filter>
    <filter
       id="d"
       x="-0.056073718"
       y="-0.3333299"
       width="1.1121474"
       height="1.6666598">
      <feGaussianBlur
         stdDeviation="7.1428572"
         id="feGaussianBlur15" />
    </filter>
    <filter
       id="c"
       x="-0.061894773"
       y="-0.21381738"
       width="1.1237895"
       height="1.4276348">
      <feGaussianBlur
         stdDeviation="2.800001"
         id="feGaussianBlur16" />
    </filter>
  </defs>
  <metadata
     id="metadata16">
    <rdf:RDF>
      <cc:Work
         rdf:about="">
        <dc:format>image/svg+xml</dc:format>
        <dc:type
           rdf:resource="http://purl.org/dc/dcmitype/StillImage" />
      </cc:Work>
    </rdf:RDF>
  </metadata>
  <g
     transform="translate(11.428557,-138.07455)"
     id="g65">
    <path
       transform="matrix(0.92701,0,0,0.88321,1300.9,379.5)"
       d="m -614.29,118.08 c 0,216.18 -175.25,391.43 -391.43,391.43 -216.18,0 -391.43,-175.25 -391.43,-391.43 0,-216.18 175.25,-391.43 391.43,-391.43 216.18,0 391.43,175.25 391.43,391.43 z"
       fill="#5599ff"
       id="path17" />
    <path
       d="m 34.286,352.36 c 54.458,-11.601 107.38,-21.668 154.29,-25.714 l 131.43,-8.5714 154.29,11.429 145.71,11.429 h 71.429 l -11.429,-31.429 c -93.159,-6.4925 -185.24,-11.905 -285.71,-25.714 l 68.571,-11.429 160,2.8572 40,5.7143 -28.571,-22.857 -177.14,-31.429 -200,5.7143 -165.71,22.857 -17.143,37.143 97.143,-22.857 117.14,5.7143 2.8571,5.7143 -242.86,37.143 z"
       fill="#000080"
       stroke-opacity="0"
       id="path18" />
    <path
       d="m 5.7143,486.65 114.29,-8.5714 191.43,2.8571 -105.71,17.143 -91.429,17.143 -65.714,14.286 -42.857,-5.7143 z"
       fill="#000080"
       stroke-opacity="0"
       id="path19" />
    <path
       d="m 654.29,486.65 -51.429,-34.286 -54.286,2.8571 -51.429,22.857 -2.8572,11.429 97.143,11.429 z"
       fill="#000080"
       stroke="#000000"
       stroke-width="1px"
       id="path20" />
    <path
       d="m 645.71,512.36 -117.14,8.5714 -62.857,-17.143 -14.286,-5.7143 -5.7143,-14.286 h -60 l 48.571,-8.5714 34.286,2.8572 34.286,-20 77.143,-11.429 2.8572,5.7143 -97.143,17.143 -11.429,22.857 65.714,17.143 z"
       fill="#000080"
       stroke-opacity="0"
       id="path21" />
    <path
       d="m 42.857,632.36 300,-2.8571 211.43,-5.7143 151.43,-5.7143 -28.571,37.143 -380,5.7143 -242.86,-8.5714 z"
       fill="#000080"
       stroke-opacity="0"
       id="path22" />
    <path
       d="m 74.286,686.65 365.71,-11.429 234.29,-5.7143 -31.429,40 -222.86,11.429 -331.43,-17.143 z"
       fill="#000080"
       stroke-opacity="0"
       id="path23" />
    <path
       d="m 260,735.22 -57.143,14.286 -42.857,2.8572 -8.5714,-17.143 22.857,-8.5714 34.286,-5.7143 z"
       fill="#000080"
       stroke-opacity="0"
       id="path24" />
    <path
       d="m 602.86,749.51 -125.71,11.429 -108.57,2.8571 -131.43,-8.5714 148.57,17.143 120,20 31.429,2.8572 z"
       fill="#000080"
       stroke-opacity="0"
       id="path25" />
    <path
       d="m 382.86,380.93 -148.57,-14.286 -108.57,5.7143 22.857,8.5714 -111.43,8.5714 h 142.86 l 114.29,-5.7143 z"
       fill="#00ffff"
       stroke-opacity="0"
       id="path26" />
    <path
       d="m 80,600.93 31.429,-20 211.43,-2.8572 -71.429,17.143 174.29,-8.5714 -174.29,22.857 z"
       fill="#00ffff"
       stroke-opacity="0"
       id="path27" />
    <path
       d="m 194.29,780.93 157.14,11.428 h 120 l -131.43,20 h -94.286 z"
       fill="#00ffff"
       stroke-opacity="0"
       id="path28" />
    <path
       transform="matrix(0.92701,0,0,0.88321,1300.9,379.5)"
       d="m -614.29,118.08 c 0,216.18 -175.25,391.43 -391.43,391.43 -216.18,0 -391.43,-175.25 -391.43,-391.43 0,-216.18 175.25,-391.43 391.43,-391.43 216.18,0 391.43,175.25 391.43,391.43 z"
       fill="#5599ff"
       id="path29" />
    <path
       d="m 34.286,352.36 c 54.458,-11.601 107.38,-21.668 154.29,-25.714 l 131.43,-8.5714 154.29,11.429 145.71,11.429 h 71.429 l -11.429,-31.429 c -93.159,-6.4925 -185.24,-11.905 -285.71,-25.714 l 68.571,-11.429 160,2.8572 40,5.7143 -28.571,-22.857 -177.14,-31.429 -200,5.7143 -165.71,22.857 -17.143,37.143 97.143,-22.857 117.14,5.7143 2.8571,5.7143 -242.86,37.143 z"
       fill="#000080"
       filter="url(#m)"
       stroke-opacity="0"
       id="path30" />
    <path
       d="m 5.7143,486.65 114.29,-8.5714 191.43,2.8571 -105.71,17.143 -91.429,17.143 -65.714,14.286 -42.857,-5.7143 z"
       fill="#000080"
       filter="url(#d)"
       stroke-opacity="0"
       id="path31" />
    <path
       d="m 654.29,486.65 -51.429,-34.286 -54.286,2.8571 -51.429,22.857 -2.8572,11.429 97.143,11.429 z"
       fill="#000080"
       filter="url(#e)"
       stroke-opacity="0"
       id="path32" />
    <path
       d="m 645.71,512.36 -117.14,8.5714 -62.857,-17.143 -14.286,-5.7143 -5.7143,-14.286 h -60 l 48.571,-8.5714 34.286,2.8572 34.286,-20 77.143,-11.429 2.8572,5.7143 -97.143,17.143 -11.429,22.857 65.714,17.143 z"
       fill="#000080"
       filter="url(#k)"
       stroke-opacity="0"
       id="path33" />
    <path
       d="m 42.857,632.36 300,-2.8571 211.43,-5.7143 151.43,-5.7143 -28.571,37.143 -380,5.7143 -242.86,-8.5714 z"
       fill="#000080"
       filter="url(#f)"
       stroke-opacity="0"
       id="path34" />
    <path
       d="m 74.286,686.65 365.71,-11.429 234.29,-5.7143 -31.429,40 -222.86,11.429 -331.43,-17.143 z"
       fill="#000080"
       filter="url(#i)"
       stroke-opacity="0"
       id="path35" />
    <path
       d="m 260,735.22 -57.143,14.286 -42.857,2.8572 -8.5714,-17.143 22.857,-8.5714 34.286,-5.7143 z"
       fill="#000080"
       filter="url(#c)"
       stroke-opacity="0"
       id="path36" />
    <path
       d="m 602.86,749.51 -125.71,11.429 -108.57,2.8571 -131.43,-8.5714 148.57,17.143 120,20 31.429,2.8572 z"
       fill="#000080"
       filter="url(#g)"
       stroke-opacity="0"
       id="path37" />
    <path
       d="m 382.86,380.93 -148.57,-14.286 -108.57,5.7143 22.857,8.5714 -111.43,8.5714 h 142.86 l 114.29,-5.7143 z"
       fill="#00ffff"
       filter="url(#l)"
       stroke-opacity="0"
       id="path38" />
    <path
       d="m 80,600.93 31.429,-20 211.43,-2.8572 -71.429,17.143 174.29,-8.5714 -174.29,22.857 z"
       fill="#00ffff"
       filter="url(#j)"
       stroke-opacity="0"
       id="path39" />
    <path
       d="m 194.29,780.93 157.14,11.428 h 120 l -131.43,20 h -94.286 z"
       fill="#00ffff"
       filter="url(#h)"
       stroke-opacity="0"
       id="path40" />
  </g>
</svg>
